<svg xmlns="http://www.w3.org/2000/svg" xmlns:xlink="http://www.w3.org/1999/xlink" width="600" zoomAndPan="magnify" viewBox="0 0 450 149.999998" height="200" preserveAspectRatio="xMidYMid meet" version="1.0"><defs><g/></defs><g fill="#000000" fill-opacity="1"><g transform="translate(101.371471, 98.664632)"><g><path d="M 9.6875 5.0625 C 8.59375 5.0625 7.628906 4.972656 6.796875 4.796875 C 5.960938 4.617188 5.242188 4.1875 4.640625 3.5 C 4.035156 2.820312 3.734375 1.773438 3.734375 0.359375 C 3.734375 -1.628906 4.332031 -4.296875 5.53125 -7.640625 C 6.726562 -10.992188 8.304688 -14.359375 10.265625 -17.734375 C 8.785156 -17.640625 7.613281 -17.414062 6.75 -17.0625 C 5.894531 -16.707031 5.332031 -16.160156 5.0625 -15.421875 C 5.1875 -15.421875 5.3125 -15.269531 5.4375 -14.96875 C 5.570312 -14.675781 5.640625 -14.367188 5.640625 -14.046875 C 5.640625 -13.515625 5.398438 -13.09375 4.921875 -12.78125 C 4.453125 -12.46875 3.863281 -12.3125 3.15625 -12.3125 C 2.320312 -12.3125 1.65625 -12.53125 1.15625 -12.96875 C 0.65625 -13.414062 0.40625 -14.054688 0.40625 -14.890625 C 0.40625 -15.890625 0.796875 -16.804688 1.578125 -17.640625 C 2.359375 -18.472656 3.445312 -19.132812 4.84375 -19.625 C 6.238281 -20.113281 7.78125 -20.359375 9.46875 -20.359375 C 10.082031 -20.359375 10.851562 -20.3125 11.78125 -20.21875 C 14.207031 -24.070312 16.773438 -27.21875 19.484375 -29.65625 C 22.191406 -32.101562 24.773438 -33.328125 27.234375 -33.328125 C 28.660156 -33.328125 29.832031 -33.117188 30.75 -32.703125 L 23.78125 0 L 17.375 0 L 20.796875 -16.125 C 19.703125 -16.632812 18.691406 -17.003906 17.765625 -17.234375 C 16.847656 -17.472656 15.875 -17.640625 14.84375 -17.734375 C 13.15625 -14.085938 11.769531 -10.359375 10.6875 -6.546875 C 9.601562 -2.742188 9.0625 0.296875 9.0625 2.578125 C 9.0625 3.703125 9.269531 4.53125 9.6875 5.0625 Z M 23.78125 -30.171875 C 22.5 -29.492188 21.171875 -28.226562 19.796875 -26.375 C 18.421875 -24.519531 17.082031 -22.273438 15.78125 -19.640625 C 17.90625 -19.222656 19.710938 -18.707031 21.203125 -18.09375 Z M 23.78125 -30.171875 "/></g></g></g><g fill="#000000" fill-opacity="1"><g transform="translate(131.055773, 98.664632)"><g><path d="M 4.40625 0.265625 C 2.976562 0.265625 1.828125 -0.175781 0.953125 -1.0625 C 0.078125 -1.957031 -0.359375 -3.289062 -0.359375 -5.0625 C -0.359375 -5.800781 -0.238281 -6.765625 0 -7.953125 L 4.75 -30.21875 L 11.328125 -31.109375 L 6.21875 -7.109375 C 6.101562 -6.660156 6.046875 -6.1875 6.046875 -5.6875 C 6.046875 -5.09375 6.1875 -4.671875 6.46875 -4.421875 C 6.75 -4.171875 7.210938 -4.046875 7.859375 -4.046875 C 8.722656 -4.046875 9.523438 -4.40625 10.265625 -5.125 C 11.003906 -5.851562 11.535156 -6.796875 11.859375 -7.953125 L 13.734375 -7.953125 C 12.640625 -4.753906 11.234375 -2.582031 9.515625 -1.4375 C 7.796875 -0.300781 6.09375 0.265625 4.40625 0.265625 Z M 4.40625 0.265625 "/></g></g></g><g fill="#000000" fill-opacity="1"><g transform="translate(142.920606, 98.664632)"><g><path d="M 5.90625 0.265625 C 3.894531 0.265625 2.351562 -0.226562 1.28125 -1.21875 C 0.21875 -2.207031 -0.3125 -3.609375 -0.3125 -5.421875 C -0.3125 -6.304688 -0.207031 -7.148438 0 -7.953125 L 4.75 -30.21875 L 11.328125 -31.109375 L 9.203125 -21.109375 C 10.023438 -21.609375 10.703125 -21.941406 11.234375 -22.109375 C 11.773438 -22.273438 12.3125 -22.359375 12.84375 -22.359375 C 16.34375 -22.359375 18.09375 -19.820312 18.09375 -14.75 C 18.09375 -12.707031 17.695312 -10.519531 16.90625 -8.1875 C 16.125 -5.863281 14.820312 -3.875 13 -2.21875 C 11.175781 -0.5625 8.8125 0.265625 5.90625 0.265625 Z M 8.40625 -4.046875 C 9.320312 -4.046875 10.175781 -4.613281 10.96875 -5.75 C 11.769531 -6.894531 12.40625 -8.316406 12.875 -10.015625 C 13.351562 -11.722656 13.59375 -13.363281 13.59375 -14.9375 C 13.59375 -16.113281 13.382812 -17.117188 12.96875 -17.953125 C 12.5625 -18.785156 11.988281 -19.203125 11.25 -19.203125 C 10.800781 -19.203125 10.300781 -19.132812 9.75 -19 C 9.207031 -18.863281 8.832031 -18.660156 8.625 -18.390625 L 6.171875 -7.109375 C 6.085938 -6.753906 6.046875 -6.414062 6.046875 -6.09375 C 6.046875 -4.726562 6.832031 -4.046875 8.40625 -4.046875 Z M 8.40625 -4.046875 "/></g></g></g><g fill="#000000" fill-opacity="1"><g transform="translate(162.650894, 98.664632)"><g><path d="M 4.40625 0.265625 C 2.976562 0.265625 1.828125 -0.175781 0.953125 -1.0625 C 0.078125 -1.957031 -0.359375 -3.289062 -0.359375 -5.0625 C -0.359375 -5.800781 -0.238281 -6.765625 0 -7.953125 L 3.015625 -22.21875 L 9.421875 -22.21875 L 6.21875 -7.109375 C 6.132812 -6.660156 6.09375 -6.242188 6.09375 -5.859375 C 6.09375 -4.648438 6.535156 -4.046875 7.421875 -4.046875 C 8.253906 -4.046875 8.960938 -4.390625 9.546875 -5.078125 C 10.140625 -5.773438 10.613281 -6.734375 10.96875 -7.953125 L 14 -22.21875 L 20.390625 -22.21875 L 17.203125 -7.109375 C 17.078125 -6.660156 17.015625 -6.1875 17.015625 -5.6875 C 17.015625 -5.09375 17.15625 -4.671875 17.4375 -4.421875 C 17.71875 -4.171875 18.1875 -4.046875 18.84375 -4.046875 C 19.664062 -4.046875 20.378906 -4.398438 20.984375 -5.109375 C 21.597656 -5.816406 22.082031 -6.765625 22.4375 -7.953125 L 24.3125 -7.953125 C 23.207031 -4.753906 21.847656 -2.582031 20.234375 -1.4375 C 18.617188 -0.300781 17 0.265625 15.375 0.265625 C 14.101562 0.265625 13.085938 -0.0859375 12.328125 -0.796875 C 11.578125 -1.503906 11.125 -2.554688 10.96875 -3.953125 C 9.96875 -2.328125 8.910156 -1.21875 7.796875 -0.625 C 6.679688 -0.03125 5.550781 0.265625 4.40625 0.265625 Z M 4.40625 0.265625 "/></g></g></g><g fill="#000000" fill-opacity="1"><g transform="translate(185.091876, 98.664632)"><g><path d="M 27.015625 0.265625 C 25.210938 0.265625 23.890625 -0.210938 23.046875 -1.171875 C 22.203125 -2.140625 21.78125 -3.332031 21.78125 -4.75 C 21.78125 -5.375 21.851562 -6.078125 22 -6.859375 C 22.144531 -7.648438 22.296875 -8.414062 22.453125 -9.15625 C 22.617188 -9.894531 22.734375 -10.367188 22.796875 -10.578125 C 23.035156 -11.609375 23.257812 -12.628906 23.46875 -13.640625 C 23.675781 -14.648438 23.78125 -15.46875 23.78125 -16.09375 C 23.78125 -17.601562 23.242188 -18.359375 22.171875 -18.359375 C 21.398438 -18.359375 20.71875 -17.976562 20.125 -17.21875 C 19.53125 -16.46875 19.054688 -15.484375 18.703125 -14.265625 L 15.6875 0 L 9.28125 0 L 12.53125 -15.328125 C 12.625 -15.679688 12.671875 -16.050781 12.671875 -16.4375 C 12.671875 -17.738281 12.222656 -18.390625 11.328125 -18.390625 C 10.503906 -18.390625 9.785156 -18.007812 9.171875 -17.25 C 8.566406 -16.5 8.085938 -15.503906 7.734375 -14.265625 L 4.703125 0 L -1.6875 0 L 3.015625 -22.21875 L 9.421875 -22.21875 L 8.9375 -19.90625 C 10.445312 -21.59375 12.253906 -22.4375 14.359375 -22.4375 C 16.960938 -22.4375 18.488281 -21.164062 18.9375 -18.625 C 20.5625 -21.132812 22.617188 -22.390625 25.109375 -22.390625 C 26.617188 -22.390625 27.816406 -21.972656 28.703125 -21.140625 C 29.597656 -20.316406 30.046875 -19.0625 30.046875 -17.375 C 30.046875 -16.519531 29.941406 -15.566406 29.734375 -14.515625 C 29.523438 -13.460938 29.226562 -12.179688 28.84375 -10.671875 C 28.601562 -9.742188 28.382812 -8.84375 28.1875 -7.96875 C 28 -7.101562 27.90625 -6.414062 27.90625 -5.90625 C 27.90625 -5.3125 28.035156 -4.851562 28.296875 -4.53125 C 28.566406 -4.207031 29.03125 -4.046875 29.6875 -4.046875 C 30.570312 -4.046875 31.28125 -4.363281 31.8125 -5 C 32.34375 -5.632812 32.878906 -6.617188 33.421875 -7.953125 L 35.28125 -7.953125 C 34.1875 -4.691406 32.921875 -2.503906 31.484375 -1.390625 C 30.046875 -0.285156 28.554688 0.265625 27.015625 0.265625 Z M 27.015625 0.265625 "/></g></g></g><g fill="#000000" fill-opacity="1"><g transform="translate(218.508942, 98.664632)"><g/></g></g><g fill="#000000" fill-opacity="1"><g transform="translate(228.151893, 98.664632)"><g><path d="M 19.375 0.75 C 17.0625 0.75 15.90625 -0.238281 15.90625 -2.21875 C 15.90625 -2.875 16 -3.625 16.1875 -4.46875 C 16.382812 -5.3125 16.660156 -6.398438 17.015625 -7.734375 C 17.429688 -9.128906 17.742188 -10.3125 17.953125 -11.28125 C 18.160156 -12.257812 18.265625 -13.132812 18.265625 -13.90625 C 18.265625 -15.925781 17.375 -16.9375 15.59375 -16.9375 C 15.125 -16.9375 14.632812 -16.875 14.125 -16.75 L 10.578125 0 L 4.171875 0 L 10.21875 -28.265625 L 16.796875 -29.15625 L 14.625 -18.890625 L 14.96875 -18.890625 C 16.125 -18.890625 17.191406 -19.285156 18.171875 -20.078125 C 19.148438 -20.878906 19.910156 -21.878906 20.453125 -23.078125 C 21.003906 -24.285156 21.28125 -25.46875 21.28125 -26.625 C 21.28125 -27.976562 20.875 -29.09375 20.0625 -29.96875 C 19.25 -30.84375 18.023438 -31.28125 16.390625 -31.28125 C 13.992188 -31.28125 11.890625 -30.847656 10.078125 -29.984375 C 8.273438 -29.128906 6.878906 -27.882812 5.890625 -26.25 C 4.898438 -24.625 4.40625 -22.703125 4.40625 -20.484375 C 4.40625 -19.390625 4.503906 -18.625 4.703125 -18.1875 C 4.910156 -17.757812 5.015625 -17.519531 5.015625 -17.46875 C 3.421875 -17.46875 2.226562 -17.800781 1.4375 -18.46875 C 0.65625 -19.132812 0.265625 -20.238281 0.265625 -21.78125 C 0.265625 -23.675781 1.039062 -25.519531 2.59375 -27.3125 C 4.15625 -29.101562 6.148438 -30.550781 8.578125 -31.65625 C 11.003906 -32.769531 13.429688 -33.328125 15.859375 -33.328125 C 18.085938 -33.328125 19.957031 -33 21.46875 -32.34375 C 22.976562 -31.695312 24.101562 -30.832031 24.84375 -29.75 C 25.582031 -28.664062 25.953125 -27.488281 25.953125 -26.21875 C 25.953125 -24.820312 25.519531 -23.425781 24.65625 -22.03125 C 23.800781 -20.644531 22.632812 -19.507812 21.15625 -18.625 C 22.28125 -18.289062 23.070312 -17.742188 23.53125 -16.984375 C 23.988281 -16.234375 24.21875 -15.296875 24.21875 -14.171875 C 24.21875 -13.316406 24.113281 -12.40625 23.90625 -11.4375 C 23.695312 -10.476562 23.398438 -9.285156 23.015625 -7.859375 C 22.773438 -6.941406 22.550781 -6.039062 22.34375 -5.15625 C 22.144531 -4.269531 22.046875 -3.53125 22.046875 -2.9375 C 22.046875 -2.25 22.195312 -1.640625 22.5 -1.109375 C 22.8125 -0.578125 23.238281 -0.207031 23.78125 0 C 21.96875 0.5 20.5 0.75 19.375 0.75 Z M 19.375 0.75 "/></g></g></g><g fill="#000000" fill-opacity="1"><g transform="translate(254.858877, 98.664632)"><g><path d="M 6.359375 0.265625 C 4.160156 0.265625 2.453125 -0.300781 1.234375 -1.4375 C 0.0234375 -2.582031 -0.578125 -4.367188 -0.578125 -6.796875 C -0.578125 -8.835938 -0.175781 -11.085938 0.625 -13.546875 C 1.425781 -16.003906 2.726562 -18.128906 4.53125 -19.921875 C 6.34375 -21.722656 8.640625 -22.625 11.421875 -22.625 C 14.679688 -22.625 16.3125 -21.203125 16.3125 -18.359375 C 16.3125 -16.691406 15.835938 -15.160156 14.890625 -13.765625 C 13.941406 -12.378906 12.679688 -11.265625 11.109375 -10.421875 C 9.535156 -9.578125 7.863281 -9.09375 6.09375 -8.96875 C 6.03125 -8.082031 6 -7.492188 6 -7.203125 C 6 -5.742188 6.25 -4.753906 6.75 -4.234375 C 7.257812 -3.722656 8.078125 -3.46875 9.203125 -3.46875 C 10.796875 -3.46875 12.160156 -3.835938 13.296875 -4.578125 C 14.441406 -5.316406 15.695312 -6.441406 17.0625 -7.953125 L 18.578125 -7.953125 C 15.285156 -2.472656 11.210938 0.265625 6.359375 0.265625 Z M 6.4375 -11.109375 C 7.539062 -11.171875 8.585938 -11.554688 9.578125 -12.265625 C 10.566406 -12.972656 11.363281 -13.875 11.96875 -14.96875 C 12.582031 -16.070312 12.890625 -17.226562 12.890625 -18.4375 C 12.890625 -19.65625 12.519531 -20.265625 11.78125 -20.265625 C 10.707031 -20.265625 9.660156 -19.332031 8.640625 -17.46875 C 7.617188 -15.601562 6.882812 -13.484375 6.4375 -11.109375 Z M 6.4375 -11.109375 "/></g></g></g><g fill="#000000" fill-opacity="1"><g transform="translate(271.92291, 98.664632)"><g><path d="M 5.0625 0.265625 C 3.34375 0.265625 2 -0.171875 1.03125 -1.046875 C 0.0703125 -1.921875 -0.40625 -3.234375 -0.40625 -4.984375 C -0.40625 -5.691406 -0.328125 -6.398438 -0.171875 -7.109375 L 3.015625 -22.21875 L 9.421875 -22.21875 L 6.21875 -7.109375 C 6.070312 -6.367188 6 -5.835938 6 -5.515625 C 6 -4.535156 6.503906 -4.046875 7.515625 -4.046875 C 8.867188 -4.046875 10.128906 -4.90625 11.296875 -6.625 C 12.472656 -8.34375 13.414062 -10.382812 14.125 -12.75 C 14.84375 -15.125 15.203125 -17.171875 15.203125 -18.890625 C 15.140625 -18.734375 14.941406 -18.617188 14.609375 -18.546875 C 14.285156 -18.472656 14.007812 -18.4375 13.78125 -18.4375 C 13.269531 -18.4375 12.875 -18.671875 12.59375 -19.140625 C 12.3125 -19.617188 12.171875 -20.140625 12.171875 -20.703125 C 12.171875 -21.421875 12.398438 -22 12.859375 -22.4375 C 13.316406 -22.882812 14.007812 -23.109375 14.9375 -23.109375 C 15.90625 -23.109375 16.613281 -22.742188 17.0625 -22.015625 C 17.507812 -21.296875 17.734375 -20.367188 17.734375 -19.234375 C 17.734375 -16.566406 17.269531 -13.710938 16.34375 -10.671875 C 15.425781 -7.640625 14.019531 -5.054688 12.125 -2.921875 C 10.226562 -0.796875 7.875 0.265625 5.0625 0.265625 Z M 5.0625 0.265625 "/></g></g></g><g fill="#000000" fill-opacity="1"><g transform="translate(290.320065, 98.664632)"><g><path d="M 7.421875 -24.625 C 6.441406 -24.625 5.609375 -24.960938 4.921875 -25.640625 C 4.242188 -26.316406 3.90625 -27.144531 3.90625 -28.125 C 3.90625 -29.101562 4.242188 -29.941406 4.921875 -30.640625 C 5.609375 -31.335938 6.441406 -31.6875 7.421875 -31.6875 C 8.398438 -31.6875 9.234375 -31.335938 9.921875 -30.640625 C 10.617188 -29.941406 10.96875 -29.101562 10.96875 -28.125 C 10.96875 -27.144531 10.617188 -26.316406 9.921875 -25.640625 C 9.234375 -24.960938 8.398438 -24.625 7.421875 -24.625 Z M 4.40625 0.265625 C 2.976562 0.265625 1.828125 -0.175781 0.953125 -1.0625 C 0.078125 -1.957031 -0.359375 -3.289062 -0.359375 -5.0625 C -0.359375 -5.800781 -0.238281 -6.765625 0 -7.953125 L 3.015625 -22.21875 L 9.421875 -22.21875 L 6.21875 -7.109375 C 6.101562 -6.660156 6.046875 -6.1875 6.046875 -5.6875 C 6.046875 -5.09375 6.1875 -4.671875 6.46875 -4.421875 C 6.75 -4.171875 7.210938 -4.046875 7.859375 -4.046875 C 8.722656 -4.046875 9.523438 -4.40625 10.265625 -5.125 C 11.003906 -5.851562 11.535156 -6.796875 11.859375 -7.953125 L 13.734375 -7.953125 C 12.640625 -4.753906 11.234375 -2.582031 9.515625 -1.4375 C 7.796875 -0.300781 6.09375 0.265625 4.40625 0.265625 Z M 4.40625 0.265625 "/></g></g></g><g fill="#000000" fill-opacity="1"><g transform="translate(302.184898, 98.664632)"><g><path d="M 6.359375 0.265625 C 4.160156 0.265625 2.453125 -0.300781 1.234375 -1.4375 C 0.0234375 -2.582031 -0.578125 -4.367188 -0.578125 -6.796875 C -0.578125 -8.835938 -0.175781 -11.085938 0.625 -13.546875 C 1.425781 -16.003906 2.726562 -18.128906 4.53125 -19.921875 C 6.34375 -21.722656 8.640625 -22.625 11.421875 -22.625 C 14.679688 -22.625 16.3125 -21.203125 16.3125 -18.359375 C 16.3125 -16.691406 15.835938 -15.160156 14.890625 -13.765625 C 13.941406 -12.378906 12.679688 -11.265625 11.109375 -10.421875 C 9.535156 -9.578125 7.863281 -9.09375 6.09375 -8.96875 C 6.03125 -8.082031 6 -7.492188 6 -7.203125 C 6 -5.742188 6.25 -4.753906 6.75 -4.234375 C 7.257812 -3.722656 8.078125 -3.46875 9.203125 -3.46875 C 10.796875 -3.46875 12.160156 -3.835938 13.296875 -4.578125 C 14.441406 -5.316406 15.695312 -6.441406 17.0625 -7.953125 L 18.578125 -7.953125 C 15.285156 -2.472656 11.210938 0.265625 6.359375 0.265625 Z M 6.4375 -11.109375 C 7.539062 -11.171875 8.585938 -11.554688 9.578125 -12.265625 C 10.566406 -12.972656 11.363281 -13.875 11.96875 -14.96875 C 12.582031 -16.070312 12.890625 -17.226562 12.890625 -18.4375 C 12.890625 -19.65625 12.519531 -20.265625 11.78125 -20.265625 C 10.707031 -20.265625 9.660156 -19.332031 8.640625 -17.46875 C 7.617188 -15.601562 6.882812 -13.484375 6.4375 -11.109375 Z M 6.4375 -11.109375 "/></g></g></g><g fill="#000000" fill-opacity="1"><g transform="translate(319.248931, 98.664632)"><g><path d="M 4.40625 0.265625 C 2.976562 0.265625 1.828125 -0.175781 0.953125 -1.0625 C 0.078125 -1.957031 -0.359375 -3.289062 -0.359375 -5.0625 C -0.359375 -5.800781 -0.238281 -6.765625 0 -7.953125 L 3.015625 -22.21875 L 9.421875 -22.21875 L 6.21875 -7.109375 C 6.132812 -6.753906 6.09375 -6.382812 6.09375 -6 C 6.09375 -4.695312 6.535156 -4.046875 7.421875 -4.046875 C 8.253906 -4.046875 8.960938 -4.390625 9.546875 -5.078125 C 10.140625 -5.773438 10.613281 -6.734375 10.96875 -7.953125 L 14 -22.21875 L 20.390625 -22.21875 L 17.203125 -7.109375 C 17.046875 -6.367188 16.96875 -5.835938 16.96875 -5.515625 C 16.96875 -4.535156 17.472656 -4.046875 18.484375 -4.046875 C 19.847656 -4.046875 21.113281 -4.90625 22.28125 -6.625 C 23.457031 -8.34375 24.398438 -10.382812 25.109375 -12.75 C 25.816406 -15.125 26.171875 -17.171875 26.171875 -18.890625 C 26.109375 -18.734375 25.914062 -18.617188 25.59375 -18.546875 C 25.269531 -18.472656 24.988281 -18.4375 24.75 -18.4375 C 24.25 -18.4375 23.859375 -18.671875 23.578125 -19.140625 C 23.296875 -19.617188 23.15625 -20.140625 23.15625 -20.703125 C 23.15625 -21.421875 23.382812 -22 23.84375 -22.4375 C 24.300781 -22.882812 24.988281 -23.109375 25.90625 -23.109375 C 26.882812 -23.109375 27.59375 -22.742188 28.03125 -22.015625 C 28.476562 -21.296875 28.703125 -20.367188 28.703125 -19.234375 C 28.703125 -16.566406 28.242188 -13.710938 27.328125 -10.671875 C 26.410156 -7.640625 25.003906 -5.054688 23.109375 -2.921875 C 21.210938 -0.796875 18.859375 0.265625 16.046875 0.265625 C 14.585938 0.265625 13.398438 -0.0390625 12.484375 -0.65625 C 11.566406 -1.28125 10.972656 -2.21875 10.703125 -3.46875 C 9.046875 -0.976562 6.945312 0.265625 4.40625 0.265625 Z M 4.40625 0.265625 "/></g></g></g></svg>