<svg xmlns="http://www.w3.org/2000/svg" xmlns:xlink="http://www.w3.org/1999/xlink" width="600" zoomAndPan="magnify" viewBox="0 0 450 149.999998" height="200" preserveAspectRatio="xMidYMid meet" version="1.0"><defs><g/></defs><g fill="#000000" fill-opacity="1"><g transform="translate(182.582528, 98.664632)"><g><path d="M 8.484375 0.796875 C 5.785156 0.796875 3.75 0.0546875 2.375 -1.421875 C 1 -2.898438 0.3125 -4.765625 0.3125 -7.015625 C 0.3125 -8.617188 0.644531 -10.226562 1.3125 -11.84375 C 1.976562 -13.457031 2.929688 -14.867188 4.171875 -16.078125 C 5.421875 -17.296875 6.875 -18.113281 8.53125 -18.53125 C 7.613281 -19.1875 6.929688 -19.976562 6.484375 -20.90625 C 6.046875 -21.84375 5.828125 -22.828125 5.828125 -23.859375 C 5.828125 -25.398438 6.25 -26.910156 7.09375 -28.390625 C 7.9375 -29.878906 9.101562 -31.085938 10.59375 -32.015625 C 12.09375 -32.953125 13.742188 -33.421875 15.546875 -33.421875 C 17.421875 -33.421875 18.945312 -32.929688 20.125 -31.953125 C 21.3125 -30.972656 21.90625 -29.609375 21.90625 -27.859375 C 21.90625 -26.554688 21.578125 -25.457031 20.921875 -24.5625 C 20.273438 -23.675781 19.507812 -23.234375 18.625 -23.234375 C 17.820312 -23.234375 17.125 -23.632812 16.53125 -24.4375 C 17.0625 -24.613281 17.519531 -25.101562 17.90625 -25.90625 C 18.289062 -26.707031 18.484375 -27.507812 18.484375 -28.3125 C 18.484375 -29.164062 18.242188 -29.789062 17.765625 -30.1875 C 17.296875 -30.59375 16.722656 -30.796875 16.046875 -30.796875 C 15.179688 -30.796875 14.398438 -30.488281 13.703125 -29.875 C 13.015625 -29.269531 12.476562 -28.484375 12.09375 -27.515625 C 11.707031 -26.554688 11.515625 -25.5625 11.515625 -24.53125 C 11.515625 -23.101562 11.882812 -21.847656 12.625 -20.765625 C 13.363281 -19.691406 14.488281 -18.960938 16 -18.578125 C 14.488281 -18.253906 13.125 -17.515625 11.90625 -16.359375 C 10.695312 -15.203125 9.75 -13.859375 9.0625 -12.328125 C 8.382812 -10.804688 8.046875 -9.347656 8.046875 -7.953125 C 8.046875 -6.617188 8.390625 -5.535156 9.078125 -4.703125 C 9.773438 -3.878906 10.835938 -3.46875 12.265625 -3.46875 C 13.742188 -3.46875 15.289062 -3.875 16.90625 -4.6875 C 18.519531 -5.5 19.710938 -6.601562 20.484375 -8 L 21.5 -7.546875 C 20.351562 -5.003906 18.578125 -2.976562 16.171875 -1.46875 C 13.773438 0.0390625 11.210938 0.796875 8.484375 0.796875 Z M 8.484375 0.796875 "/></g></g></g><g fill="#000000" fill-opacity="1"><g transform="translate(202.979378, 98.664632)"><g><path d="M 16.359375 0.578125 C 14.578125 0.578125 12.769531 -0.207031 10.9375 -1.78125 L 10.578125 0 L 4.171875 0 L 10.21875 -28.265625 L 16.796875 -29.15625 L 11.46875 -4.21875 C 12.289062 -3.625 13.132812 -3.328125 14 -3.328125 C 15.6875 -3.328125 17.171875 -4.304688 18.453125 -6.265625 C 19.742188 -8.222656 20.742188 -10.710938 21.453125 -13.734375 C 22.171875 -16.753906 22.53125 -19.804688 22.53125 -22.890625 C 22.53125 -25.785156 21.957031 -27.90625 20.8125 -29.25 C 19.675781 -30.601562 18.085938 -31.28125 16.046875 -31.28125 C 13.816406 -31.28125 11.820312 -30.84375 10.0625 -29.96875 C 8.300781 -29.09375 6.914062 -27.84375 5.90625 -26.21875 C 4.90625 -24.59375 4.40625 -22.679688 4.40625 -20.484375 C 4.40625 -19.390625 4.503906 -18.625 4.703125 -18.1875 C 4.910156 -17.757812 5.015625 -17.519531 5.015625 -17.46875 C 3.472656 -17.46875 2.296875 -17.789062 1.484375 -18.4375 C 0.671875 -19.09375 0.265625 -20.144531 0.265625 -21.59375 C 0.265625 -23.613281 1.019531 -25.523438 2.53125 -27.328125 C 4.039062 -29.140625 6.0625 -30.59375 8.59375 -31.6875 C 11.125 -32.78125 13.859375 -33.328125 16.796875 -33.328125 C 20.859375 -33.328125 23.847656 -32.125 25.765625 -29.71875 C 27.691406 -27.320312 28.65625 -24.257812 28.65625 -20.53125 C 28.65625 -17.15625 28.082031 -13.828125 26.9375 -10.546875 C 25.800781 -7.273438 24.285156 -4.601562 22.390625 -2.53125 C 20.492188 -0.457031 18.484375 0.578125 16.359375 0.578125 Z M 16.359375 0.578125 "/></g></g></g><g fill="#000000" fill-opacity="1"><g transform="translate(232.441492, 98.664632)"><g><path d="M 14.265625 -30.53125 C 12.015625 -29.789062 10.273438 -28.566406 9.046875 -26.859375 C 7.816406 -25.160156 7.203125 -23.050781 7.203125 -20.53125 C 7.203125 -19.40625 7.304688 -18.632812 7.515625 -18.21875 C 7.722656 -17.800781 7.828125 -17.550781 7.828125 -17.46875 C 4.648438 -17.46875 3.0625 -18.8125 3.0625 -21.5 C 3.0625 -23.34375 3.765625 -25.1875 5.171875 -27.03125 C 6.578125 -28.882812 8.382812 -30.394531 10.59375 -31.5625 C 12.800781 -32.738281 15.003906 -33.328125 17.203125 -33.328125 C 18.296875 -33.328125 19.421875 -33.117188 20.578125 -32.703125 L 19.546875 -9.28125 L 29.328125 -32.703125 L 35.734375 -32.703125 L 31.0625 0 L 24.65625 0 L 27.5 -19.953125 L 19.15625 0 L 13.0625 0 L 13.953125 -20.046875 L 6.53125 0 L 2.984375 0 Z M 14.265625 -30.53125 "/></g></g></g></svg>