<svg xmlns="http://www.w3.org/2000/svg" xmlns:xlink="http://www.w3.org/1999/xlink" width="600" zoomAndPan="magnify" viewBox="0 0 450 149.999998" height="200" preserveAspectRatio="xMidYMid meet" version="1.0"><defs><g/></defs><g fill="#000000" fill-opacity="1"><g transform="translate(94.574597, 98.664632)"><g><path d="M 10.3125 -29.6875 C 8.445312 -29.625 7.015625 -28.910156 6.015625 -27.546875 C 5.023438 -26.179688 4.53125 -23.828125 4.53125 -20.484375 C 4.53125 -19.390625 4.632812 -18.625 4.84375 -18.1875 C 5.050781 -17.757812 5.15625 -17.519531 5.15625 -17.46875 C 3.550781 -17.46875 2.359375 -17.800781 1.578125 -18.46875 C 0.796875 -19.132812 0.40625 -20.238281 0.40625 -21.78125 C 0.40625 -23.875 0.921875 -25.785156 1.953125 -27.515625 C 2.992188 -29.253906 4.644531 -30.65625 6.90625 -31.71875 C 9.175781 -32.789062 12.054688 -33.328125 15.546875 -33.328125 C 16.265625 -33.328125 17.210938 -33.253906 18.390625 -33.109375 C 20.523438 -32.898438 22.039062 -32.796875 22.9375 -32.796875 C 24.5 -32.796875 25.828125 -32.972656 26.921875 -33.328125 C 26.835938 -33.054688 26.675781 -32.46875 26.4375 -31.5625 C 26.195312 -30.664062 25.773438 -29.898438 25.171875 -29.265625 C 24.566406 -28.628906 23.742188 -28.207031 22.703125 -28 C 20.953125 -28 18.878906 -28.28125 16.484375 -28.84375 L 14.625 -20 L 21.109375 -20 L 20.390625 -16.703125 L 13.90625 -16.703125 L 10.3125 0 L 3.90625 0 Z M 10.3125 -29.6875 "/></g></g></g><g fill="#000000" fill-opacity="1"><g transform="translate(114.971446, 98.664632)"><g><path d="M 6.359375 0.265625 C 4.160156 0.265625 2.453125 -0.300781 1.234375 -1.4375 C 0.0234375 -2.582031 -0.578125 -4.367188 -0.578125 -6.796875 C -0.578125 -8.835938 -0.175781 -11.085938 0.625 -13.546875 C 1.425781 -16.003906 2.726562 -18.128906 4.53125 -19.921875 C 6.34375 -21.722656 8.640625 -22.625 11.421875 -22.625 C 14.679688 -22.625 16.3125 -21.203125 16.3125 -18.359375 C 16.3125 -16.691406 15.835938 -15.160156 14.890625 -13.765625 C 13.941406 -12.378906 12.679688 -11.265625 11.109375 -10.421875 C 9.535156 -9.578125 7.863281 -9.09375 6.09375 -8.96875 C 6.03125 -8.082031 6 -7.492188 6 -7.203125 C 6 -5.742188 6.25 -4.753906 6.75 -4.234375 C 7.257812 -3.722656 8.078125 -3.46875 9.203125 -3.46875 C 10.796875 -3.46875 12.160156 -3.835938 13.296875 -4.578125 C 14.441406 -5.316406 15.695312 -6.441406 17.0625 -7.953125 L 18.578125 -7.953125 C 15.285156 -2.472656 11.210938 0.265625 6.359375 0.265625 Z M 6.4375 -11.109375 C 7.539062 -11.171875 8.585938 -11.554688 9.578125 -12.265625 C 10.566406 -12.972656 11.363281 -13.875 11.96875 -14.96875 C 12.582031 -16.070312 12.890625 -17.226562 12.890625 -18.4375 C 12.890625 -19.65625 12.519531 -20.265625 11.78125 -20.265625 C 10.707031 -20.265625 9.660156 -19.332031 8.640625 -17.46875 C 7.617188 -15.601562 6.882812 -13.484375 6.4375 -11.109375 Z M 6.4375 -11.109375 "/></g></g></g><g fill="#000000" fill-opacity="1"><g transform="translate(132.035479, 98.664632)"><g><path d="M 5.328125 0.265625 C 3.640625 0.265625 2.234375 -0.3125 1.109375 -1.46875 C -0.015625 -2.625 -0.578125 -4.429688 -0.578125 -6.890625 C -0.578125 -9.078125 -0.140625 -11.378906 0.734375 -13.796875 C 1.609375 -16.210938 2.910156 -18.253906 4.640625 -19.921875 C 6.378906 -21.597656 8.445312 -22.4375 10.84375 -22.4375 C 12.0625 -22.4375 12.960938 -22.226562 13.546875 -21.8125 C 14.140625 -21.40625 14.4375 -20.859375 14.4375 -20.171875 L 14.4375 -19.859375 L 14.9375 -22.21875 L 21.328125 -22.21875 L 18.125 -7.109375 C 18.007812 -6.660156 17.953125 -6.1875 17.953125 -5.6875 C 17.953125 -4.414062 18.5625 -3.78125 19.78125 -3.78125 C 20.601562 -3.78125 21.316406 -4.164062 21.921875 -4.9375 C 22.535156 -5.707031 23.019531 -6.710938 23.375 -7.953125 L 25.234375 -7.953125 C 24.140625 -4.753906 22.785156 -2.582031 21.171875 -1.4375 C 19.554688 -0.300781 17.9375 0.265625 16.3125 0.265625 C 15.0625 0.265625 14.054688 -0.0820312 13.296875 -0.78125 C 12.546875 -1.476562 12.097656 -2.492188 11.953125 -3.828125 C 11.097656 -2.609375 10.144531 -1.617188 9.09375 -0.859375 C 8.039062 -0.109375 6.785156 0.265625 5.328125 0.265625 Z M 8.21875 -4.046875 C 8.957031 -4.046875 9.691406 -4.390625 10.421875 -5.078125 C 11.148438 -5.773438 11.644531 -6.734375 11.90625 -7.953125 L 14.046875 -18 C 14.046875 -18.382812 13.894531 -18.757812 13.59375 -19.125 C 13.300781 -19.5 12.84375 -19.6875 12.21875 -19.6875 C 11.03125 -19.6875 9.960938 -18.992188 9.015625 -17.609375 C 8.066406 -16.234375 7.328125 -14.578125 6.796875 -12.640625 C 6.265625 -10.703125 6 -8.992188 6 -7.515625 C 6 -6.023438 6.210938 -5.070312 6.640625 -4.65625 C 7.066406 -4.25 7.59375 -4.046875 8.21875 -4.046875 Z M 8.21875 -4.046875 "/></g></g></g><g fill="#000000" fill-opacity="1"><g transform="translate(155.409646, 98.664632)"><g><path d="M 4.40625 0.265625 C 2.976562 0.265625 1.828125 -0.175781 0.953125 -1.0625 C 0.078125 -1.957031 -0.359375 -3.289062 -0.359375 -5.0625 C -0.359375 -5.800781 -0.238281 -6.765625 0 -7.953125 L 2.671875 -20.4375 L 1.203125 -20.4375 L 1.5625 -22.21875 L 3.015625 -22.21875 L 4.359375 -28.34375 L 10.9375 -29.234375 L 9.421875 -22.21875 L 12.09375 -22.21875 L 11.734375 -20.4375 L 9.0625 -20.4375 L 6.21875 -7.109375 C 6.101562 -6.660156 6.046875 -6.1875 6.046875 -5.6875 C 6.046875 -5.09375 6.1875 -4.671875 6.46875 -4.421875 C 6.75 -4.171875 7.210938 -4.046875 7.859375 -4.046875 C 8.722656 -4.046875 9.523438 -4.40625 10.265625 -5.125 C 11.003906 -5.851562 11.535156 -6.796875 11.859375 -7.953125 L 13.734375 -7.953125 C 12.640625 -4.753906 11.234375 -2.582031 9.515625 -1.4375 C 7.796875 -0.300781 6.09375 0.265625 4.40625 0.265625 Z M 4.40625 0.265625 "/></g></g></g><g fill="#000000" fill-opacity="1"><g transform="translate(167.274479, 98.664632)"><g><path d="M 4.40625 0.265625 C 2.976562 0.265625 1.828125 -0.175781 0.953125 -1.0625 C 0.078125 -1.957031 -0.359375 -3.289062 -0.359375 -5.0625 C -0.359375 -5.800781 -0.238281 -6.765625 0 -7.953125 L 3.015625 -22.21875 L 9.421875 -22.21875 L 6.21875 -7.109375 C 6.132812 -6.660156 6.09375 -6.242188 6.09375 -5.859375 C 6.09375 -4.648438 6.535156 -4.046875 7.421875 -4.046875 C 8.253906 -4.046875 8.960938 -4.390625 9.546875 -5.078125 C 10.140625 -5.773438 10.613281 -6.734375 10.96875 -7.953125 L 14 -22.21875 L 20.390625 -22.21875 L 17.203125 -7.109375 C 17.078125 -6.660156 17.015625 -6.1875 17.015625 -5.6875 C 17.015625 -5.09375 17.15625 -4.671875 17.4375 -4.421875 C 17.71875 -4.171875 18.1875 -4.046875 18.84375 -4.046875 C 19.664062 -4.046875 20.378906 -4.398438 20.984375 -5.109375 C 21.597656 -5.816406 22.082031 -6.765625 22.4375 -7.953125 L 24.3125 -7.953125 C 23.207031 -4.753906 21.847656 -2.582031 20.234375 -1.4375 C 18.617188 -0.300781 17 0.265625 15.375 0.265625 C 14.101562 0.265625 13.085938 -0.0859375 12.328125 -0.796875 C 11.578125 -1.503906 11.125 -2.554688 10.96875 -3.953125 C 9.96875 -2.328125 8.910156 -1.21875 7.796875 -0.625 C 6.679688 -0.03125 5.550781 0.265625 4.40625 0.265625 Z M 4.40625 0.265625 "/></g></g></g><g fill="#000000" fill-opacity="1"><g transform="translate(189.71546, 98.664632)"><g><path d="M 3.015625 -22.21875 L 9.421875 -22.21875 L 8.84375 -19.46875 C 9.851562 -20.351562 10.765625 -21.03125 11.578125 -21.5 C 12.390625 -21.976562 13.269531 -22.21875 14.21875 -22.21875 C 15.164062 -22.21875 15.910156 -21.890625 16.453125 -21.234375 C 17.003906 -20.585938 17.28125 -19.804688 17.28125 -18.890625 C 17.28125 -18.023438 17 -17.265625 16.4375 -16.609375 C 15.875 -15.960938 15.09375 -15.640625 14.09375 -15.640625 C 13.4375 -15.640625 12.992188 -15.796875 12.765625 -16.109375 C 12.546875 -16.421875 12.378906 -16.875 12.265625 -17.46875 C 12.171875 -17.851562 12.078125 -18.132812 11.984375 -18.3125 C 11.898438 -18.488281 11.742188 -18.578125 11.515625 -18.578125 C 10.890625 -18.578125 10.359375 -18.445312 9.921875 -18.1875 C 9.492188 -17.9375 8.941406 -17.503906 8.265625 -16.890625 L 4.703125 0 L -1.6875 0 Z M 3.015625 -22.21875 "/></g></g></g><g fill="#000000" fill-opacity="1"><g transform="translate(206.423994, 98.664632)"><g><path d="M 6.359375 0.265625 C 4.160156 0.265625 2.453125 -0.300781 1.234375 -1.4375 C 0.0234375 -2.582031 -0.578125 -4.367188 -0.578125 -6.796875 C -0.578125 -8.835938 -0.175781 -11.085938 0.625 -13.546875 C 1.425781 -16.003906 2.726562 -18.128906 4.53125 -19.921875 C 6.34375 -21.722656 8.640625 -22.625 11.421875 -22.625 C 14.679688 -22.625 16.3125 -21.203125 16.3125 -18.359375 C 16.3125 -16.691406 15.835938 -15.160156 14.890625 -13.765625 C 13.941406 -12.378906 12.679688 -11.265625 11.109375 -10.421875 C 9.535156 -9.578125 7.863281 -9.09375 6.09375 -8.96875 C 6.03125 -8.082031 6 -7.492188 6 -7.203125 C 6 -5.742188 6.25 -4.753906 6.75 -4.234375 C 7.257812 -3.722656 8.078125 -3.46875 9.203125 -3.46875 C 10.796875 -3.46875 12.160156 -3.835938 13.296875 -4.578125 C 14.441406 -5.316406 15.695312 -6.441406 17.0625 -7.953125 L 18.578125 -7.953125 C 15.285156 -2.472656 11.210938 0.265625 6.359375 0.265625 Z M 6.4375 -11.109375 C 7.539062 -11.171875 8.585938 -11.554688 9.578125 -12.265625 C 10.566406 -12.972656 11.363281 -13.875 11.96875 -14.96875 C 12.582031 -16.070312 12.890625 -17.226562 12.890625 -18.4375 C 12.890625 -19.65625 12.519531 -20.265625 11.78125 -20.265625 C 10.707031 -20.265625 9.660156 -19.332031 8.640625 -17.46875 C 7.617188 -15.601562 6.882812 -13.484375 6.4375 -11.109375 Z M 6.4375 -11.109375 "/></g></g></g><g fill="#000000" fill-opacity="1"><g transform="translate(223.488027, 98.664632)"><g><path d="M 5.328125 0.265625 C 3.640625 0.265625 2.234375 -0.3125 1.109375 -1.46875 C -0.015625 -2.625 -0.578125 -4.429688 -0.578125 -6.890625 C -0.578125 -9.078125 -0.140625 -11.378906 0.734375 -13.796875 C 1.609375 -16.210938 2.910156 -18.253906 4.640625 -19.921875 C 6.378906 -21.597656 8.445312 -22.4375 10.84375 -22.4375 C 12.0625 -22.4375 12.960938 -22.226562 13.546875 -21.8125 C 14.140625 -21.40625 14.4375 -20.859375 14.4375 -20.171875 L 14.4375 -20 L 16.625 -30.21875 L 23.203125 -31.109375 L 18.09375 -7.109375 C 17.96875 -6.660156 17.90625 -6.1875 17.90625 -5.6875 C 17.90625 -5.09375 18.046875 -4.671875 18.328125 -4.421875 C 18.609375 -4.171875 19.078125 -4.046875 19.734375 -4.046875 C 20.554688 -4.046875 21.269531 -4.398438 21.875 -5.109375 C 22.488281 -5.816406 22.972656 -6.765625 23.328125 -7.953125 L 25.203125 -7.953125 C 23.390625 -2.648438 20.410156 0 16.265625 0 C 15.046875 0 14.054688 -0.320312 13.296875 -0.96875 C 12.546875 -1.625 12.082031 -2.578125 11.90625 -3.828125 C 11.132812 -2.640625 10.207031 -1.660156 9.125 -0.890625 C 8.050781 -0.117188 6.785156 0.265625 5.328125 0.265625 Z M 8.21875 -4.046875 C 8.925781 -4.046875 9.644531 -4.367188 10.375 -5.015625 C 11.101562 -5.671875 11.597656 -6.578125 11.859375 -7.734375 L 11.859375 -7.953125 L 14.046875 -18.125 C 13.773438 -19.164062 13.164062 -19.6875 12.21875 -19.6875 C 11.03125 -19.6875 9.960938 -18.992188 9.015625 -17.609375 C 8.066406 -16.234375 7.328125 -14.578125 6.796875 -12.640625 C 6.265625 -10.703125 6 -8.992188 6 -7.515625 C 6 -6.023438 6.210938 -5.070312 6.640625 -4.65625 C 7.066406 -4.25 7.59375 -4.046875 8.21875 -4.046875 Z M 8.21875 -4.046875 "/></g></g></g><g fill="#000000" fill-opacity="1"><g transform="translate(246.817756, 98.664632)"><g/></g></g><g fill="#000000" fill-opacity="1"><g transform="translate(256.460708, 98.664632)"><g><path d="M 9.6875 5.0625 C 8.59375 5.0625 7.628906 4.972656 6.796875 4.796875 C 5.960938 4.617188 5.242188 4.1875 4.640625 3.5 C 4.035156 2.820312 3.734375 1.773438 3.734375 0.359375 C 3.734375 -1.628906 4.332031 -4.296875 5.53125 -7.640625 C 6.726562 -10.992188 8.304688 -14.359375 10.265625 -17.734375 C 8.785156 -17.640625 7.613281 -17.414062 6.75 -17.0625 C 5.894531 -16.707031 5.332031 -16.160156 5.0625 -15.421875 C 5.1875 -15.421875 5.3125 -15.269531 5.4375 -14.96875 C 5.570312 -14.675781 5.640625 -14.367188 5.640625 -14.046875 C 5.640625 -13.515625 5.398438 -13.09375 4.921875 -12.78125 C 4.453125 -12.46875 3.863281 -12.3125 3.15625 -12.3125 C 2.320312 -12.3125 1.65625 -12.53125 1.15625 -12.96875 C 0.65625 -13.414062 0.40625 -14.054688 0.40625 -14.890625 C 0.40625 -15.890625 0.796875 -16.804688 1.578125 -17.640625 C 2.359375 -18.472656 3.445312 -19.132812 4.84375 -19.625 C 6.238281 -20.113281 7.78125 -20.359375 9.46875 -20.359375 C 10.082031 -20.359375 10.851562 -20.3125 11.78125 -20.21875 C 14.207031 -24.070312 16.773438 -27.21875 19.484375 -29.65625 C 22.191406 -32.101562 24.773438 -33.328125 27.234375 -33.328125 C 28.660156 -33.328125 29.832031 -33.117188 30.75 -32.703125 L 23.78125 0 L 17.375 0 L 20.796875 -16.125 C 19.703125 -16.632812 18.691406 -17.003906 17.765625 -17.234375 C 16.847656 -17.472656 15.875 -17.640625 14.84375 -17.734375 C 13.15625 -14.085938 11.769531 -10.359375 10.6875 -6.546875 C 9.601562 -2.742188 9.0625 0.296875 9.0625 2.578125 C 9.0625 3.703125 9.269531 4.53125 9.6875 5.0625 Z M 23.78125 -30.171875 C 22.5 -29.492188 21.171875 -28.226562 19.796875 -26.375 C 18.421875 -24.519531 17.082031 -22.273438 15.78125 -19.640625 C 17.90625 -19.222656 19.710938 -18.707031 21.203125 -18.09375 Z M 23.78125 -30.171875 "/></g></g></g><g fill="#000000" fill-opacity="1"><g transform="translate(286.145009, 98.664632)"><g><path d="M 3.015625 -22.21875 L 9.421875 -22.21875 L 8.84375 -19.46875 C 9.851562 -20.351562 10.765625 -21.03125 11.578125 -21.5 C 12.390625 -21.976562 13.269531 -22.21875 14.21875 -22.21875 C 15.164062 -22.21875 15.910156 -21.890625 16.453125 -21.234375 C 17.003906 -20.585938 17.28125 -19.804688 17.28125 -18.890625 C 17.28125 -18.023438 17 -17.265625 16.4375 -16.609375 C 15.875 -15.960938 15.09375 -15.640625 14.09375 -15.640625 C 13.4375 -15.640625 12.992188 -15.796875 12.765625 -16.109375 C 12.546875 -16.421875 12.378906 -16.875 12.265625 -17.46875 C 12.171875 -17.851562 12.078125 -18.132812 11.984375 -18.3125 C 11.898438 -18.488281 11.742188 -18.578125 11.515625 -18.578125 C 10.890625 -18.578125 10.359375 -18.445312 9.921875 -18.1875 C 9.492188 -17.9375 8.941406 -17.503906 8.265625 -16.890625 L 4.703125 0 L -1.6875 0 Z M 3.015625 -22.21875 "/></g></g></g><g fill="#000000" fill-opacity="1"><g transform="translate(302.853531, 98.664632)"><g><path d="M 4.40625 0.265625 C 2.976562 0.265625 1.828125 -0.175781 0.953125 -1.0625 C 0.078125 -1.957031 -0.359375 -3.289062 -0.359375 -5.0625 C -0.359375 -5.800781 -0.238281 -6.765625 0 -7.953125 L 2.671875 -20.4375 L 1.203125 -20.4375 L 1.5625 -22.21875 L 3.015625 -22.21875 L 4.359375 -28.34375 L 10.9375 -29.234375 L 9.421875 -22.21875 L 12.09375 -22.21875 L 11.734375 -20.4375 L 9.0625 -20.4375 L 6.21875 -7.109375 C 6.101562 -6.660156 6.046875 -6.1875 6.046875 -5.6875 C 6.046875 -5.09375 6.1875 -4.671875 6.46875 -4.421875 C 6.75 -4.171875 7.210938 -4.046875 7.859375 -4.046875 C 8.722656 -4.046875 9.523438 -4.40625 10.265625 -5.125 C 11.003906 -5.851562 11.535156 -6.796875 11.859375 -7.953125 L 13.734375 -7.953125 C 12.640625 -4.753906 11.234375 -2.582031 9.515625 -1.4375 C 7.796875 -0.300781 6.09375 0.265625 4.40625 0.265625 Z M 4.40625 0.265625 "/></g></g></g><g fill="#000000" fill-opacity="1"><g transform="translate(314.718352, 98.664632)"><g><path d="M 7.421875 -24.625 C 6.441406 -24.625 5.609375 -24.960938 4.921875 -25.640625 C 4.242188 -26.316406 3.90625 -27.144531 3.90625 -28.125 C 3.90625 -29.101562 4.242188 -29.941406 4.921875 -30.640625 C 5.609375 -31.335938 6.441406 -31.6875 7.421875 -31.6875 C 8.398438 -31.6875 9.234375 -31.335938 9.921875 -30.640625 C 10.617188 -29.941406 10.96875 -29.101562 10.96875 -28.125 C 10.96875 -27.144531 10.617188 -26.316406 9.921875 -25.640625 C 9.234375 -24.960938 8.398438 -24.625 7.421875 -24.625 Z M 4.40625 0.265625 C 2.976562 0.265625 1.828125 -0.175781 0.953125 -1.0625 C 0.078125 -1.957031 -0.359375 -3.289062 -0.359375 -5.0625 C -0.359375 -5.800781 -0.238281 -6.765625 0 -7.953125 L 3.015625 -22.21875 L 9.421875 -22.21875 L 6.21875 -7.109375 C 6.101562 -6.660156 6.046875 -6.1875 6.046875 -5.6875 C 6.046875 -5.09375 6.1875 -4.671875 6.46875 -4.421875 C 6.75 -4.171875 7.210938 -4.046875 7.859375 -4.046875 C 8.722656 -4.046875 9.523438 -4.40625 10.265625 -5.125 C 11.003906 -5.851562 11.535156 -6.796875 11.859375 -7.953125 L 13.734375 -7.953125 C 12.640625 -4.753906 11.234375 -2.582031 9.515625 -1.4375 C 7.796875 -0.300781 6.09375 0.265625 4.40625 0.265625 Z M 4.40625 0.265625 "/></g></g></g><g fill="#000000" fill-opacity="1"><g transform="translate(326.583174, 98.664632)"><g><path d="M 5.0625 0.265625 C 3.644531 0.265625 2.445312 -0.00390625 1.46875 -0.546875 C 0.488281 -1.097656 -0.234375 -1.8125 -0.703125 -2.6875 C -1.179688 -3.5625 -1.421875 -4.472656 -1.421875 -5.421875 C -1.421875 -6.398438 -1.191406 -7.25 -0.734375 -7.96875 C -0.273438 -8.695312 0.28125 -9.222656 0.9375 -9.546875 C 2.09375 -11.628906 3.097656 -13.726562 3.953125 -15.84375 C 4.816406 -17.957031 5.632812 -20.242188 6.40625 -22.703125 L 12.96875 -23.59375 C 13.125 -19.800781 13.378906 -15.695312 13.734375 -11.28125 C 13.878906 -9.507812 13.953125 -8.222656 13.953125 -7.421875 C 13.953125 -6.742188 13.894531 -6.179688 13.78125 -5.734375 C 15.164062 -6.535156 16.226562 -7.273438 16.96875 -7.953125 L 18.84375 -7.953125 C 16.945312 -5.765625 14.679688 -3.914062 12.046875 -2.40625 C 11.179688 -1.476562 10.117188 -0.800781 8.859375 -0.375 C 7.609375 0.0507812 6.34375 0.265625 5.0625 0.265625 Z M 3.640625 -3.25 C 4.734375 -3.25 5.648438 -3.570312 6.390625 -4.21875 C 7.140625 -4.875 7.515625 -5.925781 7.515625 -7.375 C 7.515625 -8.257812 7.425781 -9.503906 7.25 -11.109375 C 6.945312 -14.484375 6.753906 -16.75 6.671875 -17.90625 C 5.953125 -15.5625 4.75 -12.765625 3.0625 -9.515625 C 3.75 -9.148438 4.09375 -8.628906 4.09375 -7.953125 C 4.09375 -7.390625 3.90625 -6.882812 3.53125 -6.4375 C 3.164062 -6 2.703125 -5.78125 2.140625 -5.78125 C 1.515625 -5.78125 1.113281 -5.972656 0.9375 -6.359375 C 0.9375 -5.285156 1.148438 -4.5 1.578125 -4 C 2.003906 -3.5 2.691406 -3.25 3.640625 -3.25 Z M 3.640625 -3.25 "/></g></g></g><g fill="#000000" fill-opacity="1"><g transform="translate(343.558332, 98.664632)"><g><path d="M 4.40625 0.265625 C 2.976562 0.265625 1.828125 -0.175781 0.953125 -1.0625 C 0.078125 -1.957031 -0.359375 -3.289062 -0.359375 -5.0625 C -0.359375 -5.800781 -0.238281 -6.765625 0 -7.953125 L 2.671875 -20.4375 L 1.203125 -20.4375 L 1.5625 -22.21875 L 3.015625 -22.21875 L 4.359375 -28.34375 L 10.9375 -29.234375 L 9.421875 -22.21875 L 12.09375 -22.21875 L 11.734375 -20.4375 L 9.0625 -20.4375 L 6.21875 -7.109375 C 6.101562 -6.660156 6.046875 -6.1875 6.046875 -5.6875 C 6.046875 -5.09375 6.1875 -4.671875 6.46875 -4.421875 C 6.75 -4.171875 7.210938 -4.046875 7.859375 -4.046875 C 8.722656 -4.046875 9.523438 -4.40625 10.265625 -5.125 C 11.003906 -5.851562 11.535156 -6.796875 11.859375 -7.953125 L 13.734375 -7.953125 C 12.640625 -4.753906 11.234375 -2.582031 9.515625 -1.4375 C 7.796875 -0.300781 6.09375 0.265625 4.40625 0.265625 Z M 4.40625 0.265625 "/></g></g></g></svg>