<svg xmlns="http://www.w3.org/2000/svg" xmlns:xlink="http://www.w3.org/1999/xlink" width="600" zoomAndPan="magnify" viewBox="0 0 450 149.999998" height="200" preserveAspectRatio="xMidYMid meet" version="1.0"><defs><g/></defs><g fill="#000000" fill-opacity="1"><g transform="translate(154.161738, 98.151339)"><g><path d="M 10.890625 -30.21875 C 8.898438 -29.382812 7.363281 -28.140625 6.28125 -26.484375 C 5.207031 -24.828125 4.671875 -22.828125 4.671875 -20.484375 C 4.671875 -19.390625 4.769531 -18.625 4.96875 -18.1875 C 5.175781 -17.757812 5.28125 -17.519531 5.28125 -17.46875 C 3.6875 -17.46875 2.492188 -17.800781 1.703125 -18.46875 C 0.921875 -19.132812 0.53125 -20.238281 0.53125 -21.78125 C 0.53125 -23.675781 1.304688 -25.519531 2.859375 -27.3125 C 4.421875 -29.101562 6.414062 -30.550781 8.84375 -31.65625 C 11.269531 -32.769531 13.695312 -33.328125 16.125 -33.328125 C 16.539062 -33.328125 17.132812 -33.296875 17.90625 -33.234375 L 15.0625 -20 L 21.59375 -20 L 24.4375 -33.234375 L 30.84375 -33.234375 L 23.78125 0 L 17.375 0 L 20.9375 -16.703125 L 14.390625 -16.703125 L 10.84375 0 L 4.4375 0 Z M 10.890625 -30.21875 "/></g></g></g><g fill="#000000" fill-opacity="1"><g transform="translate(183.70118, 98.151339)"><g><path d="M 7.421875 -24.625 C 6.441406 -24.625 5.609375 -24.960938 4.921875 -25.640625 C 4.242188 -26.316406 3.90625 -27.144531 3.90625 -28.125 C 3.90625 -29.101562 4.242188 -29.941406 4.921875 -30.640625 C 5.609375 -31.335938 6.441406 -31.6875 7.421875 -31.6875 C 8.398438 -31.6875 9.234375 -31.335938 9.921875 -30.640625 C 10.617188 -29.941406 10.96875 -29.101562 10.96875 -28.125 C 10.96875 -27.144531 10.617188 -26.316406 9.921875 -25.640625 C 9.234375 -24.960938 8.398438 -24.625 7.421875 -24.625 Z M 4.40625 0.265625 C 2.976562 0.265625 1.828125 -0.175781 0.953125 -1.0625 C 0.078125 -1.957031 -0.359375 -3.289062 -0.359375 -5.0625 C -0.359375 -5.800781 -0.238281 -6.765625 0 -7.953125 L 3.015625 -22.21875 L 9.421875 -22.21875 L 6.21875 -7.109375 C 6.101562 -6.660156 6.046875 -6.1875 6.046875 -5.6875 C 6.046875 -5.09375 6.1875 -4.671875 6.46875 -4.421875 C 6.75 -4.171875 7.210938 -4.046875 7.859375 -4.046875 C 8.722656 -4.046875 9.523438 -4.40625 10.265625 -5.125 C 11.003906 -5.851562 11.535156 -6.796875 11.859375 -7.953125 L 13.734375 -7.953125 C 12.640625 -4.753906 11.234375 -2.582031 9.515625 -1.4375 C 7.796875 -0.300781 6.09375 0.265625 4.40625 0.265625 Z M 4.40625 0.265625 "/></g></g></g><g fill="#000000" fill-opacity="1"><g transform="translate(195.561378, 98.151339)"><g><path d="M 3.375 -23.859375 L 9.78125 -23.859375 L 9.0625 -20.53125 C 10.539062 -21.800781 12.273438 -22.4375 14.265625 -22.4375 C 15.921875 -22.4375 17.238281 -21.890625 18.21875 -20.796875 C 19.195312 -19.703125 19.6875 -17.910156 19.6875 -15.421875 C 19.6875 -13.078125 19.34375 -10.710938 18.65625 -8.328125 C 17.976562 -5.941406 16.820312 -3.910156 15.1875 -2.234375 C 13.5625 -0.566406 11.414062 0.265625 8.75 0.265625 C 6.851562 0.265625 5.597656 -0.265625 4.984375 -1.328125 L 2.671875 9.515625 L -4.046875 11.109375 Z M 7.375 -3.59375 C 8.800781 -3.59375 9.976562 -4.257812 10.90625 -5.59375 C 11.84375 -6.925781 12.523438 -8.519531 12.953125 -10.375 C 13.378906 -12.226562 13.59375 -13.953125 13.59375 -15.546875 C 13.59375 -18.003906 12.851562 -19.234375 11.375 -19.234375 C 10.84375 -19.234375 10.300781 -19.039062 9.75 -18.65625 C 9.207031 -18.28125 8.726562 -17.75 8.3125 -17.0625 L 5.6875 -4.625 C 5.925781 -3.9375 6.488281 -3.59375 7.375 -3.59375 Z M 7.375 -3.59375 "/></g></g></g><g fill="#000000" fill-opacity="1"><g transform="translate(216.350034, 98.151339)"><g/></g></g><g fill="#000000" fill-opacity="1"><g transform="translate(225.989227, 98.151339)"><g><path d="M 10.890625 -30.21875 C 8.898438 -29.382812 7.363281 -28.140625 6.28125 -26.484375 C 5.207031 -24.828125 4.671875 -22.828125 4.671875 -20.484375 C 4.671875 -19.390625 4.769531 -18.625 4.96875 -18.1875 C 5.175781 -17.757812 5.28125 -17.519531 5.28125 -17.46875 C 3.6875 -17.46875 2.492188 -17.800781 1.703125 -18.46875 C 0.921875 -19.132812 0.53125 -20.238281 0.53125 -21.78125 C 0.53125 -23.675781 1.304688 -25.519531 2.859375 -27.3125 C 4.421875 -29.101562 6.414062 -30.550781 8.84375 -31.65625 C 11.269531 -32.769531 13.695312 -33.328125 16.125 -33.328125 C 16.539062 -33.328125 17.132812 -33.296875 17.90625 -33.234375 L 15.0625 -20 L 21.59375 -20 L 24.4375 -33.234375 L 30.84375 -33.234375 L 23.78125 0 L 17.375 0 L 20.9375 -16.703125 L 14.390625 -16.703125 L 10.84375 0 L 4.4375 0 Z M 10.890625 -30.21875 "/></g></g></g><g fill="#000000" fill-opacity="1"><g transform="translate(255.528668, 98.151339)"><g><path d="M 6.484375 0.171875 C 4.296875 0.171875 2.5625 -0.390625 1.28125 -1.515625 C 0.0078125 -2.640625 -0.625 -4.414062 -0.625 -6.84375 C -0.625 -8.851562 -0.210938 -11.085938 0.609375 -13.546875 C 1.441406 -16.003906 2.773438 -18.128906 4.609375 -19.921875 C 6.453125 -21.722656 8.765625 -22.625 11.546875 -22.625 C 15.335938 -22.625 17.234375 -20.253906 17.234375 -15.515625 L 17.234375 -15.46875 C 17.328125 -15.4375 17.492188 -15.421875 17.734375 -15.421875 C 18.710938 -15.421875 19.835938 -15.675781 21.109375 -16.1875 C 22.378906 -16.707031 23.535156 -17.34375 24.578125 -18.09375 L 24.96875 -16.890625 C 24.113281 -15.972656 22.992188 -15.191406 21.609375 -14.546875 C 20.234375 -13.910156 18.734375 -13.460938 17.109375 -13.203125 C 16.867188 -10.503906 16.257812 -8.144531 15.28125 -6.125 C 14.300781 -4.113281 13.039062 -2.5625 11.5 -1.46875 C 9.96875 -0.375 8.296875 0.171875 6.484375 0.171875 Z M 8.265625 -3.828125 C 8.972656 -3.828125 9.679688 -4.234375 10.390625 -5.046875 C 11.109375 -5.859375 11.734375 -6.96875 12.265625 -8.375 C 12.796875 -9.78125 13.179688 -11.34375 13.421875 -13.0625 C 12.617188 -13.238281 12.21875 -13.863281 12.21875 -14.9375 C 12.21875 -16.144531 12.675781 -16.941406 13.59375 -17.328125 C 13.539062 -18.304688 13.394531 -18.976562 13.15625 -19.34375 C 12.914062 -19.71875 12.5 -19.90625 11.90625 -19.90625 C 10.925781 -19.90625 9.976562 -19.191406 9.0625 -17.765625 C 8.144531 -16.347656 7.40625 -14.644531 6.84375 -12.65625 C 6.28125 -10.675781 6 -8.929688 6 -7.421875 C 6 -5.992188 6.160156 -5.035156 6.484375 -4.546875 C 6.816406 -4.066406 7.410156 -3.828125 8.265625 -3.828125 Z M 8.265625 -3.828125 "/></g></g></g><g fill="#000000" fill-opacity="1"><g transform="translate(275.029137, 98.151339)"><g><path d="M 3.375 -23.859375 L 9.78125 -23.859375 L 9.0625 -20.53125 C 10.539062 -21.800781 12.273438 -22.4375 14.265625 -22.4375 C 15.921875 -22.4375 17.238281 -21.890625 18.21875 -20.796875 C 19.195312 -19.703125 19.6875 -17.910156 19.6875 -15.421875 C 19.6875 -13.078125 19.34375 -10.710938 18.65625 -8.328125 C 17.976562 -5.941406 16.820312 -3.910156 15.1875 -2.234375 C 13.5625 -0.566406 11.414062 0.265625 8.75 0.265625 C 6.851562 0.265625 5.597656 -0.265625 4.984375 -1.328125 L 2.671875 9.515625 L -4.046875 11.109375 Z M 7.375 -3.59375 C 8.800781 -3.59375 9.976562 -4.257812 10.90625 -5.59375 C 11.84375 -6.925781 12.523438 -8.519531 12.953125 -10.375 C 13.378906 -12.226562 13.59375 -13.953125 13.59375 -15.546875 C 13.59375 -18.003906 12.851562 -19.234375 11.375 -19.234375 C 10.84375 -19.234375 10.300781 -19.039062 9.75 -18.65625 C 9.207031 -18.28125 8.726562 -17.75 8.3125 -17.0625 L 5.6875 -4.625 C 5.925781 -3.9375 6.488281 -3.59375 7.375 -3.59375 Z M 7.375 -3.59375 "/></g></g></g></svg>