<svg xmlns="http://www.w3.org/2000/svg" xmlns:xlink="http://www.w3.org/1999/xlink" width="600" zoomAndPan="magnify" viewBox="0 0 450 149.999998" height="200" preserveAspectRatio="xMidYMid meet" version="1.0"><defs><g/></defs><g fill="#000000" fill-opacity="1"><g transform="translate(119.663207, 98.151339)"><g><path d="M 10.625 -30.171875 C 8.632812 -29.367188 7.097656 -28.144531 6.015625 -26.5 C 4.941406 -24.863281 4.40625 -22.859375 4.40625 -20.484375 C 4.40625 -19.390625 4.503906 -18.625 4.703125 -18.1875 C 4.910156 -17.757812 5.015625 -17.519531 5.015625 -17.46875 C 3.421875 -17.46875 2.226562 -17.800781 1.4375 -18.46875 C 0.65625 -19.132812 0.265625 -20.238281 0.265625 -21.78125 C 0.265625 -23.675781 1.039062 -25.519531 2.59375 -27.3125 C 4.15625 -29.101562 6.148438 -30.550781 8.578125 -31.65625 C 11.003906 -32.769531 13.429688 -33.328125 15.859375 -33.328125 C 16.273438 -33.328125 16.867188 -33.296875 17.640625 -33.234375 L 10.578125 0 L 4.171875 0 Z M 10.625 -30.171875 "/></g></g></g><g fill="#000000" fill-opacity="1"><g transform="translate(136.320783, 98.151339)"><g><path d="M 16.046875 0.265625 C 14.234375 0.265625 12.90625 -0.210938 12.0625 -1.171875 C 11.21875 -2.140625 10.796875 -3.332031 10.796875 -4.75 C 10.796875 -5.375 10.867188 -6.078125 11.015625 -6.859375 C 11.171875 -7.648438 11.328125 -8.414062 11.484375 -9.15625 C 11.648438 -9.894531 11.765625 -10.367188 11.828125 -10.578125 C 12.054688 -11.609375 12.273438 -12.628906 12.484375 -13.640625 C 12.691406 -14.648438 12.796875 -15.46875 12.796875 -16.09375 C 12.796875 -17.601562 12.265625 -18.359375 11.203125 -18.359375 C 10.429688 -18.359375 9.75 -17.976562 9.15625 -17.21875 C 8.5625 -16.46875 8.085938 -15.484375 7.734375 -14.265625 L 4.703125 0 L -1.6875 0 L 3.015625 -22.21875 L 9.421875 -22.21875 L 8.9375 -19.90625 C 10.414062 -21.5625 12.144531 -22.390625 14.125 -22.390625 C 15.632812 -22.390625 16.832031 -21.972656 17.71875 -21.140625 C 18.613281 -20.316406 19.0625 -19.0625 19.0625 -17.375 C 19.0625 -16.519531 18.957031 -15.566406 18.75 -14.515625 C 18.539062 -13.460938 18.242188 -12.179688 17.859375 -10.671875 C 17.628906 -9.742188 17.414062 -8.84375 17.21875 -7.96875 C 17.03125 -7.101562 16.9375 -6.414062 16.9375 -5.90625 C 16.9375 -5.3125 17.066406 -4.851562 17.328125 -4.53125 C 17.597656 -4.207031 18.054688 -4.046875 18.703125 -4.046875 C 19.597656 -4.046875 20.3125 -4.363281 20.84375 -5 C 21.375 -5.632812 21.90625 -6.617188 22.4375 -7.953125 L 24.3125 -7.953125 C 23.207031 -4.691406 21.9375 -2.503906 20.5 -1.390625 C 19.070312 -0.285156 17.585938 0.265625 16.046875 0.265625 Z M 16.046875 0.265625 "/></g></g></g><g fill="#000000" fill-opacity="1"><g transform="translate(158.752993, 98.151339)"><g><path d="M 5.328125 0.265625 C 3.640625 0.265625 2.234375 -0.3125 1.109375 -1.46875 C -0.015625 -2.625 -0.578125 -4.429688 -0.578125 -6.890625 C -0.578125 -9.078125 -0.140625 -11.378906 0.734375 -13.796875 C 1.609375 -16.210938 2.910156 -18.253906 4.640625 -19.921875 C 6.378906 -21.597656 8.445312 -22.4375 10.84375 -22.4375 C 12.0625 -22.4375 12.960938 -22.226562 13.546875 -21.8125 C 14.140625 -21.40625 14.4375 -20.859375 14.4375 -20.171875 L 14.4375 -20 L 16.625 -30.21875 L 23.203125 -31.109375 L 18.09375 -7.109375 C 17.96875 -6.660156 17.90625 -6.1875 17.90625 -5.6875 C 17.90625 -5.09375 18.046875 -4.671875 18.328125 -4.421875 C 18.609375 -4.171875 19.078125 -4.046875 19.734375 -4.046875 C 20.554688 -4.046875 21.269531 -4.398438 21.875 -5.109375 C 22.488281 -5.816406 22.972656 -6.765625 23.328125 -7.953125 L 25.203125 -7.953125 C 23.390625 -2.648438 20.410156 0 16.265625 0 C 15.046875 0 14.054688 -0.320312 13.296875 -0.96875 C 12.546875 -1.625 12.082031 -2.578125 11.90625 -3.828125 C 11.132812 -2.640625 10.207031 -1.660156 9.125 -0.890625 C 8.050781 -0.117188 6.785156 0.265625 5.328125 0.265625 Z M 8.21875 -4.046875 C 8.925781 -4.046875 9.644531 -4.367188 10.375 -5.015625 C 11.101562 -5.671875 11.597656 -6.578125 11.859375 -7.734375 L 11.859375 -7.953125 L 14.046875 -18.125 C 13.773438 -19.164062 13.164062 -19.6875 12.21875 -19.6875 C 11.03125 -19.6875 9.960938 -18.992188 9.015625 -17.609375 C 8.066406 -16.234375 7.328125 -14.578125 6.796875 -12.640625 C 6.265625 -10.703125 6 -8.992188 6 -7.515625 C 6 -6.023438 6.210938 -5.070312 6.640625 -4.65625 C 7.066406 -4.25 7.59375 -4.046875 8.21875 -4.046875 Z M 8.21875 -4.046875 "/></g></g></g><g fill="#000000" fill-opacity="1"><g transform="translate(182.073586, 98.151339)"><g><path d="M 7.421875 -24.625 C 6.441406 -24.625 5.609375 -24.960938 4.921875 -25.640625 C 4.242188 -26.316406 3.90625 -27.144531 3.90625 -28.125 C 3.90625 -29.101562 4.242188 -29.941406 4.921875 -30.640625 C 5.609375 -31.335938 6.441406 -31.6875 7.421875 -31.6875 C 8.398438 -31.6875 9.234375 -31.335938 9.921875 -30.640625 C 10.617188 -29.941406 10.96875 -29.101562 10.96875 -28.125 C 10.96875 -27.144531 10.617188 -26.316406 9.921875 -25.640625 C 9.234375 -24.960938 8.398438 -24.625 7.421875 -24.625 Z M 4.40625 0.265625 C 2.976562 0.265625 1.828125 -0.175781 0.953125 -1.0625 C 0.078125 -1.957031 -0.359375 -3.289062 -0.359375 -5.0625 C -0.359375 -5.800781 -0.238281 -6.765625 0 -7.953125 L 3.015625 -22.21875 L 9.421875 -22.21875 L 6.21875 -7.109375 C 6.101562 -6.660156 6.046875 -6.1875 6.046875 -5.6875 C 6.046875 -5.09375 6.1875 -4.671875 6.46875 -4.421875 C 6.75 -4.171875 7.210938 -4.046875 7.859375 -4.046875 C 8.722656 -4.046875 9.523438 -4.40625 10.265625 -5.125 C 11.003906 -5.851562 11.535156 -6.796875 11.859375 -7.953125 L 13.734375 -7.953125 C 12.640625 -4.753906 11.234375 -2.582031 9.515625 -1.4375 C 7.796875 -0.300781 6.09375 0.265625 4.40625 0.265625 Z M 4.40625 0.265625 "/></g></g></g><g fill="#000000" fill-opacity="1"><g transform="translate(193.933784, 98.151339)"><g><path d="M 6.359375 0.265625 C 4.160156 0.265625 2.453125 -0.300781 1.234375 -1.4375 C 0.0234375 -2.582031 -0.578125 -4.367188 -0.578125 -6.796875 C -0.578125 -8.835938 -0.175781 -11.085938 0.625 -13.546875 C 1.425781 -16.003906 2.726562 -18.128906 4.53125 -19.921875 C 6.34375 -21.722656 8.640625 -22.625 11.421875 -22.625 C 14.679688 -22.625 16.3125 -21.203125 16.3125 -18.359375 C 16.3125 -16.691406 15.835938 -15.160156 14.890625 -13.765625 C 13.941406 -12.378906 12.679688 -11.265625 11.109375 -10.421875 C 9.535156 -9.578125 7.863281 -9.09375 6.09375 -8.96875 C 6.03125 -8.082031 6 -7.492188 6 -7.203125 C 6 -5.742188 6.25 -4.753906 6.75 -4.234375 C 7.257812 -3.722656 8.078125 -3.46875 9.203125 -3.46875 C 10.796875 -3.46875 12.160156 -3.835938 13.296875 -4.578125 C 14.441406 -5.316406 15.695312 -6.441406 17.0625 -7.953125 L 18.578125 -7.953125 C 15.285156 -2.472656 11.210938 0.265625 6.359375 0.265625 Z M 6.4375 -11.109375 C 7.539062 -11.171875 8.585938 -11.554688 9.578125 -12.265625 C 10.566406 -12.972656 11.363281 -13.875 11.96875 -14.96875 C 12.582031 -16.070312 12.890625 -17.226562 12.890625 -18.4375 C 12.890625 -19.65625 12.519531 -20.265625 11.78125 -20.265625 C 10.707031 -20.265625 9.660156 -19.332031 8.640625 -17.46875 C 7.617188 -15.601562 6.882812 -13.484375 6.4375 -11.109375 Z M 6.4375 -11.109375 "/></g></g></g><g fill="#000000" fill-opacity="1"><g transform="translate(210.99114, 98.151339)"><g/></g></g><g fill="#000000" fill-opacity="1"><g transform="translate(220.630333, 98.151339)"><g><path d="M 9.90625 -33.328125 L 13.109375 -33.328125 L 3.6875 11.109375 L 0.484375 11.109375 Z M 9.90625 -33.328125 "/></g></g></g><g fill="#000000" fill-opacity="1"><g transform="translate(234.445017, 98.151339)"><g/></g></g><g fill="#000000" fill-opacity="1"><g transform="translate(244.08421, 98.151339)"><g><path d="M 19.375 0.75 C 17.0625 0.75 15.90625 -0.238281 15.90625 -2.21875 C 15.90625 -2.875 16 -3.625 16.1875 -4.46875 C 16.382812 -5.3125 16.660156 -6.398438 17.015625 -7.734375 C 17.429688 -9.128906 17.742188 -10.3125 17.953125 -11.28125 C 18.160156 -12.257812 18.265625 -13.132812 18.265625 -13.90625 C 18.265625 -15.925781 17.375 -16.9375 15.59375 -16.9375 C 15.125 -16.9375 14.632812 -16.875 14.125 -16.75 L 10.578125 0 L 4.171875 0 L 10.21875 -28.265625 L 16.796875 -29.15625 L 14.625 -18.890625 L 14.96875 -18.890625 C 16.125 -18.890625 17.191406 -19.285156 18.171875 -20.078125 C 19.148438 -20.878906 19.910156 -21.878906 20.453125 -23.078125 C 21.003906 -24.285156 21.28125 -25.46875 21.28125 -26.625 C 21.28125 -27.976562 20.875 -29.09375 20.0625 -29.96875 C 19.25 -30.84375 18.023438 -31.28125 16.390625 -31.28125 C 13.992188 -31.28125 11.890625 -30.847656 10.078125 -29.984375 C 8.273438 -29.128906 6.878906 -27.882812 5.890625 -26.25 C 4.898438 -24.625 4.40625 -22.703125 4.40625 -20.484375 C 4.40625 -19.390625 4.503906 -18.625 4.703125 -18.1875 C 4.910156 -17.757812 5.015625 -17.519531 5.015625 -17.46875 C 3.421875 -17.46875 2.226562 -17.800781 1.4375 -18.46875 C 0.65625 -19.132812 0.265625 -20.238281 0.265625 -21.78125 C 0.265625 -23.675781 1.039062 -25.519531 2.59375 -27.3125 C 4.15625 -29.101562 6.148438 -30.550781 8.578125 -31.65625 C 11.003906 -32.769531 13.429688 -33.328125 15.859375 -33.328125 C 18.085938 -33.328125 19.957031 -33 21.46875 -32.34375 C 22.976562 -31.695312 24.101562 -30.832031 24.84375 -29.75 C 25.582031 -28.664062 25.953125 -27.488281 25.953125 -26.21875 C 25.953125 -24.820312 25.519531 -23.425781 24.65625 -22.03125 C 23.800781 -20.644531 22.632812 -19.507812 21.15625 -18.625 C 22.28125 -18.289062 23.070312 -17.742188 23.53125 -16.984375 C 23.988281 -16.234375 24.21875 -15.296875 24.21875 -14.171875 C 24.21875 -13.316406 24.113281 -12.40625 23.90625 -11.4375 C 23.695312 -10.476562 23.398438 -9.285156 23.015625 -7.859375 C 22.773438 -6.941406 22.550781 -6.039062 22.34375 -5.15625 C 22.144531 -4.269531 22.046875 -3.53125 22.046875 -2.9375 C 22.046875 -2.25 22.195312 -1.640625 22.5 -1.109375 C 22.8125 -0.578125 23.238281 -0.207031 23.78125 0 C 21.96875 0.5 20.5 0.75 19.375 0.75 Z M 19.375 0.75 "/></g></g></g><g fill="#000000" fill-opacity="1"><g transform="translate(270.780759, 98.151339)"><g><path d="M 6.484375 0.171875 C 4.296875 0.171875 2.5625 -0.390625 1.28125 -1.515625 C 0.0078125 -2.640625 -0.625 -4.414062 -0.625 -6.84375 C -0.625 -8.851562 -0.210938 -11.085938 0.609375 -13.546875 C 1.441406 -16.003906 2.773438 -18.128906 4.609375 -19.921875 C 6.453125 -21.722656 8.765625 -22.625 11.546875 -22.625 C 15.335938 -22.625 17.234375 -20.253906 17.234375 -15.515625 L 17.234375 -15.46875 C 17.328125 -15.4375 17.492188 -15.421875 17.734375 -15.421875 C 18.710938 -15.421875 19.835938 -15.675781 21.109375 -16.1875 C 22.378906 -16.707031 23.535156 -17.34375 24.578125 -18.09375 L 24.96875 -16.890625 C 24.113281 -15.972656 22.992188 -15.191406 21.609375 -14.546875 C 20.234375 -13.910156 18.734375 -13.460938 17.109375 -13.203125 C 16.867188 -10.503906 16.257812 -8.144531 15.28125 -6.125 C 14.300781 -4.113281 13.039062 -2.5625 11.5 -1.46875 C 9.96875 -0.375 8.296875 0.171875 6.484375 0.171875 Z M 8.265625 -3.828125 C 8.972656 -3.828125 9.679688 -4.234375 10.390625 -5.046875 C 11.109375 -5.859375 11.734375 -6.96875 12.265625 -8.375 C 12.796875 -9.78125 13.179688 -11.34375 13.421875 -13.0625 C 12.617188 -13.238281 12.21875 -13.863281 12.21875 -14.9375 C 12.21875 -16.144531 12.675781 -16.941406 13.59375 -17.328125 C 13.539062 -18.304688 13.394531 -18.976562 13.15625 -19.34375 C 12.914062 -19.71875 12.5 -19.90625 11.90625 -19.90625 C 10.925781 -19.90625 9.976562 -19.191406 9.0625 -17.765625 C 8.144531 -16.347656 7.40625 -14.644531 6.84375 -12.65625 C 6.28125 -10.675781 6 -8.929688 6 -7.421875 C 6 -5.992188 6.160156 -5.035156 6.484375 -4.546875 C 6.816406 -4.066406 7.410156 -3.828125 8.265625 -3.828125 Z M 8.265625 -3.828125 "/></g></g></g><g fill="#000000" fill-opacity="1"><g transform="translate(290.281228, 98.151339)"><g><path d="M 6.359375 0.265625 C 4.160156 0.265625 2.453125 -0.300781 1.234375 -1.4375 C 0.0234375 -2.582031 -0.578125 -4.367188 -0.578125 -6.796875 C -0.578125 -8.835938 -0.171875 -11.085938 0.640625 -13.546875 C 1.453125 -16.003906 2.753906 -18.128906 4.546875 -19.921875 C 6.347656 -21.722656 8.625 -22.625 11.375 -22.625 C 13.15625 -22.625 14.421875 -22.238281 15.171875 -21.46875 C 15.929688 -20.695312 16.3125 -19.71875 16.3125 -18.53125 C 16.3125 -17.488281 16.085938 -16.6875 15.640625 -16.125 C 15.191406 -15.5625 14.628906 -15.28125 13.953125 -15.28125 C 13.453125 -15.28125 12.929688 -15.457031 12.390625 -15.8125 C 12.753906 -16.789062 12.9375 -17.664062 12.9375 -18.4375 C 12.9375 -19 12.832031 -19.441406 12.625 -19.765625 C 12.414062 -20.097656 12.101562 -20.265625 11.6875 -20.265625 C 10.800781 -20.265625 9.910156 -19.535156 9.015625 -18.078125 C 8.128906 -16.628906 7.40625 -14.867188 6.84375 -12.796875 C 6.28125 -10.722656 6 -8.859375 6 -7.203125 C 6 -5.742188 6.25 -4.753906 6.75 -4.234375 C 7.257812 -3.722656 8.078125 -3.46875 9.203125 -3.46875 C 10.796875 -3.46875 12.160156 -3.835938 13.296875 -4.578125 C 14.441406 -5.316406 15.695312 -6.441406 17.0625 -7.953125 L 18.578125 -7.953125 C 15.285156 -2.472656 11.210938 0.265625 6.359375 0.265625 Z M 6.359375 0.265625 "/></g></g></g><g fill="#000000" fill-opacity="1"><g transform="translate(307.338584, 98.151339)"><g><path d="M 16.703125 0.265625 C 14.867188 0.265625 13.476562 -0.171875 12.53125 -1.046875 C 11.582031 -1.921875 11.109375 -3.171875 11.109375 -4.796875 C 11.109375 -5.503906 11.195312 -6.273438 11.375 -7.109375 L 11.734375 -8.84375 C 11.847656 -9.34375 11.90625 -9.890625 11.90625 -10.484375 C 11.90625 -11.910156 11.375 -12.625 10.3125 -12.625 C 9.832031 -12.625 9.332031 -12.488281 8.8125 -12.21875 C 8.300781 -11.957031 7.703125 -11.539062 7.015625 -10.96875 L 4.703125 0 L -1.6875 0 L 4.75 -30.21875 L 11.328125 -31.109375 L 8 -15.46875 L 16.578125 -22.21875 L 20.96875 -22.21875 L 12.09375 -16.046875 C 12.53125 -16.160156 13.015625 -16.21875 13.546875 -16.21875 C 15.148438 -16.21875 16.363281 -15.726562 17.1875 -14.75 C 18.019531 -13.769531 18.4375 -12.523438 18.4375 -11.015625 C 18.4375 -10.398438 18.378906 -9.835938 18.265625 -9.328125 L 17.78125 -7.109375 C 17.625 -6.578125 17.546875 -6.101562 17.546875 -5.6875 C 17.546875 -4.59375 18.125 -4.046875 19.28125 -4.046875 C 20.175781 -4.046875 20.890625 -4.363281 21.421875 -5 C 21.953125 -5.632812 22.484375 -6.617188 23.015625 -7.953125 L 24.890625 -7.953125 C 23.046875 -2.472656 20.316406 0.265625 16.703125 0.265625 Z M 16.703125 0.265625 "/></g></g></g></svg>