<svg xmlns="http://www.w3.org/2000/svg" xmlns:xlink="http://www.w3.org/1999/xlink" width="200" zoomAndPan="magnify" viewBox="0 0 150 149.999998" height="200" preserveAspectRatio="xMidYMid meet" version="1.0"><defs><g/><clipPath id="e71b7a6b18"><path d="M 13.679688 12.355469 L 136.679688 12.355469 L 136.679688 135.355469 L 13.679688 135.355469 Z M 13.679688 12.355469 " clip-rule="nonzero"/></clipPath></defs><g clip-path="url(#e71b7a6b18)"><path fill="#000000" d="M 75.667969 18.097656 C 75.570312 18 75.570312 17.84375 75.667969 17.746094 C 75.761719 17.648438 75.921875 17.648438 76.019531 17.746094 C 76.113281 17.84375 76.113281 18 76.019531 18.097656 C 75.96875 18.144531 75.90625 18.167969 75.84375 18.167969 C 75.777344 18.167969 75.71875 18.144531 75.667969 18.097656 Z M 74.09375 18.34375 C 73.996094 18.246094 73.996094 18.09375 74.09375 17.996094 C 74.191406 17.898438 74.347656 17.898438 74.441406 17.996094 C 74.539062 18.09375 74.539062 18.246094 74.441406 18.34375 C 74.394531 18.394531 74.332031 18.417969 74.265625 18.417969 C 74.207031 18.417969 74.140625 18.394531 74.09375 18.34375 Z M 77.242188 19.671875 C 77.144531 19.574219 77.144531 19.417969 77.242188 19.320312 C 77.339844 19.222656 77.496094 19.222656 77.59375 19.320312 C 77.6875 19.417969 77.6875 19.574219 77.59375 19.671875 C 77.542969 19.71875 77.480469 19.742188 77.417969 19.742188 C 77.351562 19.742188 77.292969 19.71875 77.242188 19.671875 Z M 72.515625 19.921875 C 72.421875 19.824219 72.421875 19.667969 72.515625 19.570312 C 72.613281 19.472656 72.773438 19.472656 72.867188 19.570312 C 72.964844 19.667969 72.964844 19.824219 72.867188 19.921875 C 72.820312 19.96875 72.757812 19.992188 72.691406 19.992188 C 72.628906 19.992188 72.566406 19.96875 72.515625 19.921875 Z M 78.820312 21.246094 C 78.722656 21.148438 78.722656 20.992188 78.820312 20.898438 C 78.914062 20.800781 79.070312 20.800781 79.167969 20.898438 C 79.265625 20.992188 79.265625 21.148438 79.167969 21.246094 C 79.121094 21.296875 79.054688 21.320312 78.992188 21.320312 C 78.929688 21.320312 78.863281 21.296875 78.820312 21.246094 Z M 70.945312 21.496094 C 70.847656 21.398438 70.847656 21.242188 70.945312 21.144531 C 71.039062 21.046875 71.195312 21.046875 71.292969 21.144531 C 71.390625 21.242188 71.390625 21.398438 71.292969 21.496094 C 71.246094 21.542969 71.179688 21.566406 71.121094 21.566406 C 71.054688 21.566406 70.988281 21.542969 70.945312 21.496094 Z M 80.390625 22.820312 C 80.296875 22.726562 80.296875 22.566406 80.390625 22.46875 C 80.488281 22.375 80.648438 22.375 80.742188 22.46875 C 80.839844 22.566406 80.839844 22.726562 80.742188 22.820312 C 80.695312 22.867188 80.632812 22.894531 80.566406 22.894531 C 80.503906 22.894531 80.441406 22.867188 80.390625 22.820312 Z M 69.371094 23.070312 C 69.273438 22.972656 69.273438 22.816406 69.371094 22.71875 C 69.464844 22.625 69.621094 22.625 69.71875 22.71875 C 69.8125 22.816406 69.8125 22.972656 69.71875 23.070312 C 69.667969 23.117188 69.605469 23.144531 69.542969 23.144531 C 69.480469 23.144531 69.417969 23.117188 69.371094 23.070312 Z M 81.96875 24.394531 C 81.871094 24.300781 81.871094 24.144531 81.96875 24.046875 C 82.066406 23.949219 82.222656 23.949219 82.316406 24.046875 C 82.414062 24.144531 82.414062 24.300781 82.316406 24.394531 C 82.269531 24.445312 82.207031 24.46875 82.140625 24.46875 C 82.082031 24.46875 82.015625 24.445312 81.96875 24.394531 Z M 67.792969 24.644531 C 67.695312 24.550781 67.695312 24.390625 67.792969 24.292969 C 67.890625 24.199219 68.046875 24.199219 68.144531 24.292969 C 68.242188 24.390625 68.242188 24.550781 68.144531 24.644531 C 68.09375 24.691406 68.03125 24.71875 67.96875 24.71875 C 67.902344 24.71875 67.84375 24.691406 67.792969 24.644531 Z M 83.542969 25.972656 C 83.445312 25.875 83.445312 25.71875 83.542969 25.621094 C 83.640625 25.523438 83.796875 25.523438 83.894531 25.621094 C 83.988281 25.71875 83.988281 25.875 83.894531 25.972656 C 83.84375 26.019531 83.78125 26.042969 83.71875 26.042969 C 83.652344 26.042969 83.59375 26.019531 83.542969 25.972656 Z M 66.21875 26.21875 C 66.121094 26.121094 66.121094 25.96875 66.21875 25.871094 C 66.316406 25.773438 66.472656 25.773438 66.566406 25.871094 C 66.664062 25.96875 66.664062 26.121094 66.566406 26.21875 C 66.519531 26.269531 66.457031 26.292969 66.390625 26.292969 C 66.332031 26.292969 66.265625 26.269531 66.21875 26.21875 Z M 85.117188 27.546875 C 85.023438 27.449219 85.023438 27.292969 85.117188 27.195312 C 85.214844 27.097656 85.371094 27.097656 85.46875 27.195312 C 85.5625 27.292969 85.5625 27.449219 85.46875 27.546875 C 85.417969 27.59375 85.355469 27.617188 85.292969 27.617188 C 85.230469 27.617188 85.167969 27.59375 85.117188 27.546875 Z M 64.640625 27.796875 C 64.546875 27.699219 64.546875 27.542969 64.640625 27.445312 C 64.738281 27.347656 64.898438 27.347656 64.996094 27.445312 C 65.089844 27.542969 65.089844 27.699219 64.996094 27.796875 C 64.945312 27.84375 64.882812 27.867188 64.816406 27.867188 C 64.757812 27.867188 64.691406 27.84375 64.640625 27.796875 Z M 86.691406 29.121094 C 86.597656 29.023438 86.597656 28.867188 86.691406 28.769531 C 86.789062 28.675781 86.945312 28.675781 87.042969 28.769531 C 87.136719 28.867188 87.136719 29.023438 87.042969 29.121094 C 86.996094 29.171875 86.929688 29.195312 86.867188 29.195312 C 86.804688 29.195312 86.738281 29.171875 86.691406 29.121094 Z M 63.070312 29.371094 C 62.972656 29.273438 62.972656 29.117188 63.070312 29.019531 C 63.164062 28.921875 63.320312 28.921875 63.417969 29.019531 C 63.515625 29.117188 63.515625 29.273438 63.417969 29.371094 C 63.371094 29.417969 63.304688 29.441406 63.246094 29.441406 C 63.179688 29.441406 63.117188 29.417969 63.070312 29.371094 Z M 88.265625 30.695312 C 88.171875 30.601562 88.171875 30.441406 88.265625 30.34375 C 88.363281 30.25 88.523438 30.25 88.617188 30.34375 C 88.714844 30.441406 88.714844 30.601562 88.617188 30.695312 C 88.570312 30.742188 88.507812 30.769531 88.445312 30.769531 C 88.378906 30.769531 88.316406 30.742188 88.265625 30.695312 Z M 61.492188 30.945312 C 61.398438 30.847656 61.398438 30.691406 61.492188 30.59375 C 61.589844 30.5 61.746094 30.5 61.84375 30.59375 C 61.941406 30.691406 61.941406 30.847656 61.84375 30.945312 C 61.796875 30.992188 61.730469 31.019531 61.667969 31.019531 C 61.605469 31.019531 61.539062 30.992188 61.492188 30.945312 Z M 89.84375 32.269531 C 89.746094 32.171875 89.746094 32.019531 89.84375 31.921875 C 89.941406 31.824219 90.09375 31.824219 90.191406 31.921875 C 90.289062 32.019531 90.289062 32.171875 90.191406 32.269531 C 90.144531 32.320312 90.082031 32.34375 90.015625 32.34375 C 89.957031 32.34375 89.890625 32.320312 89.84375 32.269531 Z M 59.917969 32.519531 C 59.820312 32.425781 59.820312 32.265625 59.917969 32.167969 C 60.015625 32.070312 60.171875 32.070312 60.269531 32.167969 C 60.367188 32.265625 60.367188 32.425781 60.269531 32.519531 C 60.21875 32.566406 60.15625 32.59375 60.09375 32.59375 C 60.027344 32.59375 59.96875 32.566406 59.917969 32.519531 Z M 91.417969 33.847656 C 91.320312 33.75 91.320312 33.59375 91.417969 33.496094 C 91.515625 33.398438 91.671875 33.398438 91.765625 33.496094 C 91.863281 33.59375 91.863281 33.75 91.765625 33.847656 C 91.71875 33.894531 91.65625 33.917969 91.59375 33.917969 C 91.527344 33.917969 91.46875 33.894531 91.417969 33.847656 Z M 58.34375 34.09375 C 58.246094 33.996094 58.246094 33.84375 58.34375 33.746094 C 58.441406 33.648438 58.597656 33.648438 58.691406 33.746094 C 58.789062 33.84375 58.789062 33.996094 58.691406 34.09375 C 58.644531 34.144531 58.582031 34.167969 58.519531 34.167969 C 58.457031 34.167969 58.390625 34.144531 58.34375 34.09375 Z M 92.992188 35.421875 C 92.894531 35.324219 92.894531 35.167969 92.992188 35.070312 C 93.085938 34.976562 93.246094 34.976562 93.34375 35.070312 C 93.441406 35.167969 93.441406 35.324219 93.34375 35.421875 C 93.292969 35.46875 93.230469 35.492188 93.167969 35.492188 C 93.105469 35.492188 93.042969 35.46875 92.992188 35.421875 Z M 56.765625 35.671875 C 56.671875 35.570312 56.671875 35.417969 56.765625 35.320312 C 56.867188 35.222656 57.023438 35.222656 57.121094 35.320312 C 57.214844 35.417969 57.214844 35.570312 57.121094 35.671875 C 57.070312 35.71875 57.007812 35.742188 56.941406 35.742188 C 56.882812 35.742188 56.816406 35.71875 56.765625 35.671875 Z M 94.570312 36.996094 C 94.472656 36.898438 94.472656 36.742188 94.570312 36.644531 C 94.664062 36.550781 94.820312 36.550781 94.917969 36.644531 C 95.011719 36.742188 95.011719 36.898438 94.917969 36.996094 C 94.871094 37.046875 94.804688 37.070312 94.742188 37.070312 C 94.679688 37.070312 94.613281 37.046875 94.570312 36.996094 Z M 55.195312 37.246094 C 55.097656 37.148438 55.097656 36.992188 55.195312 36.894531 C 55.289062 36.800781 55.445312 36.800781 55.542969 36.894531 C 55.640625 36.992188 55.640625 37.148438 55.542969 37.246094 C 55.496094 37.292969 55.429688 37.316406 55.371094 37.316406 C 55.304688 37.316406 55.242188 37.292969 55.195312 37.246094 Z M 96.140625 38.570312 C 96.046875 38.476562 96.046875 38.316406 96.140625 38.21875 C 96.238281 38.125 96.398438 38.125 96.492188 38.21875 C 96.589844 38.316406 96.589844 38.476562 96.492188 38.570312 C 96.445312 38.617188 96.378906 38.644531 96.320312 38.644531 C 96.253906 38.644531 96.191406 38.617188 96.140625 38.570312 Z M 53.621094 38.820312 C 53.519531 38.722656 53.519531 38.566406 53.621094 38.46875 C 53.714844 38.375 53.871094 38.375 53.96875 38.46875 C 54.0625 38.566406 54.0625 38.722656 53.96875 38.820312 C 53.921875 38.867188 53.855469 38.894531 53.792969 38.894531 C 53.730469 38.894531 53.664062 38.867188 53.621094 38.820312 Z M 97.714844 40.144531 C 97.621094 40.046875 97.621094 39.894531 97.714844 39.796875 C 97.816406 39.699219 97.972656 39.699219 98.066406 39.796875 C 98.164062 39.894531 98.164062 40.046875 98.066406 40.144531 C 98.019531 40.195312 97.957031 40.21875 97.890625 40.21875 C 97.828125 40.21875 97.765625 40.195312 97.714844 40.144531 Z M 52.042969 40.394531 C 51.945312 40.300781 51.945312 40.140625 52.042969 40.042969 C 52.140625 39.949219 52.296875 39.949219 52.394531 40.042969 C 52.492188 40.140625 52.492188 40.300781 52.394531 40.394531 C 52.34375 40.441406 52.28125 40.46875 52.21875 40.46875 C 52.152344 40.46875 52.09375 40.441406 52.042969 40.394531 Z M 99.292969 41.722656 C 99.195312 41.625 99.195312 41.46875 99.292969 41.371094 C 99.390625 41.273438 99.546875 41.273438 99.640625 41.371094 C 99.738281 41.46875 99.738281 41.625 99.640625 41.722656 C 99.59375 41.769531 99.53125 41.792969 99.46875 41.792969 C 99.402344 41.792969 99.339844 41.769531 99.292969 41.722656 Z M 50.46875 41.96875 C 50.371094 41.871094 50.371094 41.71875 50.46875 41.621094 C 50.566406 41.523438 50.722656 41.523438 50.816406 41.621094 C 50.914062 41.71875 50.914062 41.871094 50.816406 41.96875 C 50.769531 42.019531 50.707031 42.042969 50.640625 42.042969 C 50.582031 42.042969 50.515625 42.019531 50.46875 41.96875 Z M 100.867188 43.296875 C 100.769531 43.199219 100.769531 43.042969 100.867188 42.945312 C 100.960938 42.847656 101.121094 42.847656 101.21875 42.945312 C 101.316406 43.042969 101.316406 43.199219 101.21875 43.296875 C 101.167969 43.34375 101.105469 43.367188 101.042969 43.367188 C 100.976562 43.367188 100.917969 43.34375 100.867188 43.296875 Z M 48.890625 43.546875 C 48.796875 43.445312 48.796875 43.292969 48.890625 43.195312 C 48.988281 43.097656 49.148438 43.097656 49.242188 43.195312 C 49.339844 43.292969 49.339844 43.445312 49.242188 43.546875 C 49.195312 43.59375 49.132812 43.617188 49.066406 43.617188 C 49.003906 43.617188 48.941406 43.59375 48.890625 43.546875 Z M 102.445312 44.871094 C 102.347656 44.773438 102.347656 44.617188 102.445312 44.519531 C 102.539062 44.425781 102.695312 44.425781 102.792969 44.519531 C 102.886719 44.617188 102.886719 44.773438 102.792969 44.871094 C 102.746094 44.917969 102.679688 44.945312 102.617188 44.945312 C 102.554688 44.945312 102.488281 44.917969 102.445312 44.871094 Z M 47.316406 45.121094 C 47.222656 45.023438 47.222656 44.863281 47.316406 44.769531 C 47.414062 44.671875 47.570312 44.671875 47.667969 44.769531 C 47.765625 44.863281 47.765625 45.023438 47.667969 45.121094 C 47.621094 45.167969 47.554688 45.191406 47.496094 45.191406 C 47.429688 45.191406 47.367188 45.167969 47.316406 45.121094 Z M 104.015625 46.445312 C 103.921875 46.351562 103.921875 46.191406 104.015625 46.09375 C 104.113281 46 104.273438 46 104.367188 46.09375 C 104.464844 46.191406 104.464844 46.351562 104.367188 46.445312 C 104.320312 46.492188 104.257812 46.519531 104.191406 46.519531 C 104.128906 46.519531 104.066406 46.492188 104.015625 46.445312 Z M 45.746094 46.695312 C 45.648438 46.597656 45.648438 46.441406 45.746094 46.34375 C 45.839844 46.25 45.996094 46.25 46.09375 46.34375 C 46.191406 46.441406 46.191406 46.597656 46.09375 46.695312 C 46.042969 46.742188 45.980469 46.769531 45.917969 46.769531 C 45.855469 46.769531 45.792969 46.742188 45.746094 46.695312 Z M 105.59375 48.019531 C 105.496094 47.925781 105.496094 47.769531 105.59375 47.671875 C 105.691406 47.574219 105.847656 47.574219 105.941406 47.671875 C 106.039062 47.769531 106.039062 47.925781 105.941406 48.019531 C 105.894531 48.070312 105.832031 48.09375 105.765625 48.09375 C 105.707031 48.09375 105.640625 48.070312 105.59375 48.019531 Z M 44.167969 48.269531 C 44.070312 48.175781 44.070312 48.015625 44.167969 47.917969 C 44.265625 47.824219 44.421875 47.824219 44.519531 47.917969 C 44.617188 48.015625 44.617188 48.175781 44.519531 48.269531 C 44.46875 48.316406 44.40625 48.34375 44.34375 48.34375 C 44.277344 48.34375 44.21875 48.316406 44.167969 48.269531 Z M 107.167969 49.59375 C 107.070312 49.5 107.070312 49.34375 107.167969 49.246094 C 107.265625 49.148438 107.417969 49.148438 107.515625 49.246094 C 107.613281 49.34375 107.613281 49.5 107.515625 49.59375 C 107.46875 49.644531 107.40625 49.667969 107.34375 49.667969 C 107.28125 49.667969 107.214844 49.644531 107.167969 49.59375 Z M 42.59375 49.84375 C 42.496094 49.75 42.496094 49.59375 42.59375 49.496094 C 42.691406 49.398438 42.847656 49.398438 42.941406 49.496094 C 43.039062 49.59375 43.039062 49.75 42.941406 49.84375 C 42.894531 49.894531 42.832031 49.917969 42.769531 49.917969 C 42.707031 49.917969 42.640625 49.894531 42.59375 49.84375 Z M 108.742188 51.171875 C 108.644531 51.074219 108.644531 50.917969 108.742188 50.820312 C 108.839844 50.722656 108.996094 50.722656 109.09375 50.820312 C 109.191406 50.917969 109.191406 51.074219 109.09375 51.171875 C 109.042969 51.21875 108.980469 51.242188 108.917969 51.242188 C 108.851562 51.242188 108.792969 51.21875 108.742188 51.171875 Z M 41.015625 51.417969 C 40.921875 51.324219 40.921875 51.167969 41.015625 51.070312 C 41.113281 50.972656 41.273438 50.972656 41.367188 51.070312 C 41.464844 51.167969 41.464844 51.324219 41.367188 51.417969 C 41.320312 51.46875 41.257812 51.492188 41.191406 51.492188 C 41.132812 51.492188 41.066406 51.46875 41.015625 51.417969 Z M 110.316406 52.746094 C 110.222656 52.648438 110.222656 52.492188 110.316406 52.394531 C 110.414062 52.300781 110.570312 52.300781 110.667969 52.394531 C 110.761719 52.492188 110.761719 52.648438 110.667969 52.746094 C 110.621094 52.792969 110.554688 52.820312 110.492188 52.820312 C 110.429688 52.820312 110.363281 52.792969 110.316406 52.746094 Z M 39.441406 52.996094 C 39.347656 52.898438 39.347656 52.742188 39.441406 52.644531 C 39.539062 52.546875 39.695312 52.546875 39.796875 52.644531 C 39.890625 52.742188 39.890625 52.898438 39.796875 52.996094 C 39.746094 53.042969 39.679688 53.066406 39.621094 53.066406 C 39.554688 53.066406 39.492188 53.042969 39.441406 52.996094 Z M 111.890625 54.320312 C 111.796875 54.226562 111.796875 54.066406 111.890625 53.96875 C 111.988281 53.875 112.148438 53.875 112.242188 53.96875 C 112.339844 54.066406 112.339844 54.226562 112.242188 54.320312 C 112.195312 54.367188 112.132812 54.394531 112.066406 54.394531 C 112.003906 54.394531 111.941406 54.367188 111.890625 54.320312 Z M 37.871094 54.570312 C 37.773438 54.472656 37.773438 54.316406 37.871094 54.21875 C 37.964844 54.125 38.121094 54.125 38.21875 54.21875 C 38.316406 54.316406 38.316406 54.472656 38.21875 54.570312 C 38.171875 54.617188 38.105469 54.644531 38.042969 54.644531 C 37.980469 54.644531 37.917969 54.617188 37.871094 54.570312 Z M 113.464844 55.894531 C 113.371094 55.800781 113.371094 55.644531 113.464844 55.546875 C 113.566406 55.449219 113.71875 55.449219 113.816406 55.546875 C 113.914062 55.644531 113.914062 55.800781 113.816406 55.894531 C 113.769531 55.945312 113.707031 55.96875 113.640625 55.96875 C 113.582031 55.96875 113.515625 55.945312 113.464844 55.894531 Z M 36.292969 56.144531 C 36.195312 56.050781 36.195312 55.890625 36.292969 55.792969 C 36.390625 55.699219 36.546875 55.699219 36.644531 55.792969 C 36.742188 55.890625 36.742188 56.050781 36.644531 56.144531 C 36.59375 56.191406 36.53125 56.21875 36.46875 56.21875 C 36.402344 56.21875 36.34375 56.191406 36.292969 56.144531 Z M 115.042969 57.472656 C 114.945312 57.371094 114.945312 57.21875 115.042969 57.121094 C 115.140625 57.023438 115.296875 57.023438 115.390625 57.121094 C 115.488281 57.21875 115.488281 57.371094 115.390625 57.472656 C 115.34375 57.519531 115.28125 57.542969 115.21875 57.542969 C 115.152344 57.542969 115.089844 57.519531 115.042969 57.472656 Z M 34.71875 57.71875 C 34.621094 57.625 34.621094 57.46875 34.71875 57.371094 C 34.816406 57.273438 34.972656 57.273438 35.066406 57.371094 C 35.164062 57.46875 35.164062 57.625 35.066406 57.71875 C 35.019531 57.769531 34.957031 57.792969 34.894531 57.792969 C 34.828125 57.792969 34.765625 57.769531 34.71875 57.71875 Z M 116.617188 59.046875 C 116.519531 58.949219 116.519531 58.792969 116.617188 58.695312 C 116.710938 58.597656 116.871094 58.597656 116.96875 58.695312 C 117.066406 58.792969 117.066406 58.949219 116.96875 59.046875 C 116.917969 59.09375 116.855469 59.117188 116.792969 59.117188 C 116.730469 59.117188 116.667969 59.09375 116.617188 59.046875 Z M 33.140625 59.296875 C 33.046875 59.195312 33.046875 59.042969 33.140625 58.945312 C 33.242188 58.847656 33.398438 58.847656 33.492188 58.945312 C 33.589844 59.042969 33.589844 59.195312 33.492188 59.296875 C 33.445312 59.34375 33.382812 59.367188 33.316406 59.367188 C 33.257812 59.367188 33.191406 59.34375 33.140625 59.296875 Z M 118.191406 60.621094 C 118.097656 60.523438 118.097656 60.367188 118.191406 60.269531 C 118.289062 60.175781 118.445312 60.175781 118.542969 60.269531 C 118.636719 60.367188 118.636719 60.523438 118.542969 60.621094 C 118.496094 60.667969 118.429688 60.695312 118.367188 60.695312 C 118.304688 60.695312 118.238281 60.667969 118.191406 60.621094 Z M 31.566406 60.871094 C 31.472656 60.773438 31.472656 60.617188 31.566406 60.519531 C 31.664062 60.421875 31.820312 60.421875 31.921875 60.519531 C 32.015625 60.617188 32.015625 60.773438 31.921875 60.871094 C 31.871094 60.917969 31.804688 60.941406 31.746094 60.941406 C 31.679688 60.941406 31.617188 60.917969 31.566406 60.871094 Z M 119.769531 62.195312 C 119.671875 62.101562 119.671875 61.941406 119.769531 61.84375 C 119.863281 61.75 120.023438 61.75 120.117188 61.84375 C 120.214844 61.941406 120.214844 62.101562 120.117188 62.195312 C 120.070312 62.242188 120.003906 62.269531 119.941406 62.269531 C 119.878906 62.269531 119.816406 62.242188 119.769531 62.195312 Z M 29.996094 62.445312 C 29.898438 62.347656 29.898438 62.191406 29.996094 62.09375 C 30.089844 62 30.246094 62 30.34375 62.09375 C 30.441406 62.191406 30.441406 62.347656 30.34375 62.445312 C 30.296875 62.492188 30.230469 62.519531 30.167969 62.519531 C 30.105469 62.519531 30.042969 62.492188 29.996094 62.445312 Z M 121.34375 63.769531 C 121.246094 63.675781 121.246094 63.519531 121.34375 63.421875 C 121.441406 63.324219 121.597656 63.324219 121.691406 63.421875 C 121.789062 63.519531 121.789062 63.675781 121.691406 63.769531 C 121.644531 63.820312 121.582031 63.84375 121.515625 63.84375 C 121.453125 63.84375 121.390625 63.820312 121.34375 63.769531 Z M 28.417969 64.019531 C 28.320312 63.925781 28.320312 63.765625 28.417969 63.667969 C 28.515625 63.574219 28.671875 63.574219 28.769531 63.667969 C 28.867188 63.765625 28.867188 63.925781 28.769531 64.019531 C 28.71875 64.066406 28.660156 64.09375 28.59375 64.09375 C 28.53125 64.09375 28.46875 64.066406 28.417969 64.019531 Z M 122.917969 65.34375 C 122.820312 65.246094 122.820312 65.09375 122.917969 64.996094 C 123.015625 64.898438 123.171875 64.898438 123.265625 64.996094 C 123.363281 65.09375 123.363281 65.246094 123.265625 65.34375 C 123.21875 65.394531 123.15625 65.417969 123.09375 65.417969 C 123.03125 65.417969 122.964844 65.394531 122.917969 65.34375 Z M 26.84375 65.59375 C 26.746094 65.5 26.746094 65.34375 26.84375 65.246094 C 26.941406 65.148438 27.097656 65.148438 27.191406 65.246094 C 27.289062 65.34375 27.289062 65.5 27.191406 65.59375 C 27.144531 65.644531 27.082031 65.667969 27.019531 65.667969 C 26.953125 65.667969 26.890625 65.644531 26.84375 65.59375 Z M 124.492188 66.921875 C 124.394531 66.824219 124.394531 66.664062 124.492188 66.570312 C 124.585938 66.472656 124.746094 66.472656 124.84375 66.570312 C 124.941406 66.664062 124.941406 66.824219 124.84375 66.921875 C 124.792969 66.96875 124.730469 66.992188 124.667969 66.992188 C 124.601562 66.992188 124.542969 66.96875 124.492188 66.921875 Z M 25.269531 67.167969 C 25.171875 67.070312 25.171875 66.917969 25.269531 66.820312 C 25.367188 66.722656 25.523438 66.722656 25.617188 66.820312 C 25.714844 66.917969 25.714844 67.070312 25.617188 67.167969 C 25.570312 67.21875 25.507812 67.242188 25.441406 67.242188 C 25.382812 67.242188 25.316406 67.21875 25.269531 67.167969 Z M 126.066406 68.496094 C 125.972656 68.398438 125.972656 68.242188 126.066406 68.144531 C 126.164062 68.050781 126.320312 68.050781 126.417969 68.144531 C 126.511719 68.242188 126.511719 68.398438 126.417969 68.496094 C 126.371094 68.542969 126.304688 68.570312 126.242188 68.570312 C 126.179688 68.570312 126.113281 68.542969 126.066406 68.496094 Z M 23.691406 68.746094 C 23.597656 68.648438 23.597656 68.488281 23.691406 68.394531 C 23.789062 68.296875 23.949219 68.296875 24.042969 68.394531 C 24.140625 68.488281 24.140625 68.648438 24.042969 68.746094 C 23.996094 68.792969 23.929688 68.816406 23.871094 68.816406 C 23.804688 68.816406 23.742188 68.792969 23.691406 68.746094 Z M 127.242188 69.671875 C 127.148438 69.578125 127.148438 69.417969 127.242188 69.320312 C 127.339844 69.226562 127.5 69.226562 127.59375 69.320312 C 127.691406 69.417969 127.691406 69.578125 127.59375 69.671875 C 127.546875 69.71875 127.484375 69.746094 127.417969 69.746094 C 127.355469 69.746094 127.292969 69.71875 127.242188 69.671875 Z M 22.121094 70.320312 C 22.023438 70.222656 22.023438 70.066406 22.121094 69.96875 C 22.214844 69.875 22.371094 69.875 22.46875 69.96875 C 22.566406 70.066406 22.566406 70.222656 22.46875 70.320312 C 22.421875 70.367188 22.355469 70.394531 22.292969 70.394531 C 22.230469 70.394531 22.167969 70.367188 22.121094 70.320312 Z M 128.820312 71.246094 C 128.722656 71.152344 128.722656 70.992188 128.820312 70.898438 C 128.917969 70.800781 129.074219 70.800781 129.167969 70.898438 C 129.265625 70.992188 129.265625 71.152344 129.167969 71.246094 C 129.121094 71.296875 129.058594 71.320312 128.992188 71.320312 C 128.929688 71.320312 128.867188 71.296875 128.820312 71.246094 Z M 20.542969 71.894531 C 20.445312 71.796875 20.445312 71.640625 20.542969 71.542969 C 20.640625 71.449219 20.796875 71.449219 20.894531 71.542969 C 20.992188 71.640625 20.992188 71.796875 20.894531 71.894531 C 20.84375 71.941406 20.785156 71.96875 20.71875 71.96875 C 20.65625 71.96875 20.59375 71.941406 20.542969 71.894531 Z M 130.394531 72.820312 C 130.296875 72.722656 130.296875 72.570312 130.394531 72.472656 C 130.492188 72.375 130.644531 72.375 130.746094 72.472656 C 130.839844 72.570312 130.839844 72.722656 130.746094 72.820312 C 130.695312 72.871094 130.632812 72.894531 130.570312 72.894531 C 130.503906 72.894531 130.441406 72.871094 130.394531 72.820312 Z M 18.96875 73.46875 C 18.871094 73.375 18.871094 73.214844 18.96875 73.121094 C 19.066406 73.023438 19.222656 73.023438 19.316406 73.121094 C 19.414062 73.214844 19.414062 73.375 19.316406 73.46875 C 19.269531 73.519531 19.207031 73.542969 19.144531 73.542969 C 19.078125 73.542969 19.015625 73.519531 18.96875 73.46875 Z M 131.238281 74.398438 C 131.144531 74.300781 131.144531 74.144531 131.238281 74.046875 C 131.335938 73.949219 131.492188 73.949219 131.589844 74.046875 C 131.6875 74.144531 131.6875 74.300781 131.589844 74.398438 C 131.542969 74.445312 131.476562 74.46875 131.414062 74.46875 C 131.351562 74.46875 131.289062 74.445312 131.238281 74.398438 Z M 19.417969 75.042969 C 19.320312 74.945312 19.320312 74.789062 19.417969 74.695312 C 19.511719 74.597656 19.667969 74.597656 19.765625 74.695312 C 19.863281 74.789062 19.863281 74.945312 19.765625 75.042969 C 19.71875 75.09375 19.652344 75.117188 19.59375 75.117188 C 19.527344 75.117188 19.464844 75.09375 19.417969 75.042969 Z M 129.667969 75.972656 C 129.570312 75.875 129.570312 75.71875 129.667969 75.621094 C 129.761719 75.527344 129.917969 75.527344 130.015625 75.621094 C 130.113281 75.71875 130.113281 75.875 130.015625 75.972656 C 129.96875 76.019531 129.902344 76.042969 129.839844 76.042969 C 129.777344 76.042969 129.714844 76.019531 129.667969 75.972656 Z M 20.992188 76.621094 C 20.894531 76.523438 20.894531 76.367188 20.992188 76.269531 C 21.085938 76.171875 21.246094 76.171875 21.34375 76.269531 C 21.4375 76.367188 21.4375 76.523438 21.34375 76.621094 C 21.292969 76.667969 21.230469 76.691406 21.167969 76.691406 C 21.101562 76.691406 21.039062 76.667969 20.992188 76.621094 Z M 128.089844 77.546875 C 127.992188 77.449219 127.992188 77.292969 128.089844 77.195312 C 128.1875 77.101562 128.34375 77.101562 128.441406 77.195312 C 128.539062 77.292969 128.539062 77.449219 128.441406 77.546875 C 128.390625 77.59375 128.328125 77.621094 128.265625 77.621094 C 128.203125 77.621094 128.140625 77.59375 128.089844 77.546875 Z M 22.566406 78.195312 C 22.472656 78.097656 22.472656 77.941406 22.566406 77.84375 C 22.664062 77.75 22.820312 77.75 22.914062 77.84375 C 23.011719 77.941406 23.011719 78.097656 22.914062 78.195312 C 22.871094 78.242188 22.804688 78.265625 22.742188 78.265625 C 22.679688 78.265625 22.613281 78.242188 22.566406 78.195312 Z M 126.515625 79.121094 C 126.417969 79.027344 126.417969 78.871094 126.515625 78.769531 C 126.613281 78.675781 126.769531 78.675781 126.867188 78.769531 C 126.960938 78.871094 126.960938 79.027344 126.867188 79.121094 C 126.816406 79.171875 126.753906 79.195312 126.691406 79.195312 C 126.628906 79.195312 126.5625 79.171875 126.515625 79.121094 Z M 24.140625 79.769531 C 24.046875 79.675781 24.046875 79.515625 24.140625 79.417969 C 24.238281 79.324219 24.394531 79.324219 24.492188 79.417969 C 24.589844 79.515625 24.589844 79.675781 24.492188 79.769531 C 24.445312 79.816406 24.382812 79.839844 24.316406 79.839844 C 24.253906 79.839844 24.191406 79.816406 24.140625 79.769531 Z M 124.941406 80.695312 C 124.84375 80.597656 124.84375 80.441406 124.941406 80.347656 C 125.035156 80.25 125.195312 80.25 125.289062 80.347656 C 125.386719 80.441406 125.386719 80.597656 125.289062 80.695312 C 125.242188 80.746094 125.179688 80.769531 125.113281 80.769531 C 125.054688 80.769531 124.988281 80.746094 124.941406 80.695312 Z M 25.71875 81.34375 C 25.621094 81.246094 25.621094 81.089844 25.71875 80.996094 C 25.8125 80.894531 25.96875 80.894531 26.066406 80.996094 C 26.164062 81.089844 26.164062 81.246094 26.066406 81.34375 C 26.015625 81.394531 25.957031 81.417969 25.890625 81.417969 C 25.828125 81.417969 25.765625 81.394531 25.71875 81.34375 Z M 123.367188 82.273438 C 123.269531 82.175781 123.269531 82.019531 123.367188 81.921875 C 123.460938 81.824219 123.617188 81.824219 123.714844 81.921875 C 123.8125 82.019531 123.8125 82.175781 123.714844 82.273438 C 123.667969 82.320312 123.605469 82.34375 123.542969 82.34375 C 123.476562 82.34375 123.414062 82.320312 123.367188 82.273438 Z M 27.292969 82.917969 C 27.195312 82.820312 27.195312 82.667969 27.292969 82.570312 C 27.386719 82.472656 27.542969 82.472656 27.640625 82.570312 C 27.738281 82.667969 27.738281 82.820312 27.640625 82.917969 C 27.59375 82.96875 27.527344 82.992188 27.46875 82.992188 C 27.402344 82.992188 27.339844 82.96875 27.292969 82.917969 Z M 121.792969 83.847656 C 121.695312 83.75 121.695312 83.59375 121.792969 83.496094 C 121.886719 83.402344 122.042969 83.402344 122.140625 83.496094 C 122.238281 83.59375 122.238281 83.75 122.140625 83.847656 C 122.09375 83.894531 122.027344 83.917969 121.964844 83.917969 C 121.902344 83.917969 121.839844 83.894531 121.792969 83.847656 Z M 28.867188 84.496094 C 28.769531 84.398438 28.769531 84.242188 28.867188 84.144531 C 28.964844 84.046875 29.121094 84.046875 29.21875 84.144531 C 29.3125 84.242188 29.3125 84.398438 29.21875 84.496094 C 29.167969 84.542969 29.105469 84.566406 29.042969 84.566406 C 28.976562 84.566406 28.914062 84.542969 28.867188 84.496094 Z M 120.214844 85.421875 C 120.117188 85.324219 120.117188 85.167969 120.214844 85.070312 C 120.3125 84.976562 120.46875 84.976562 120.566406 85.070312 C 120.664062 85.167969 120.664062 85.324219 120.566406 85.421875 C 120.515625 85.46875 120.453125 85.496094 120.390625 85.496094 C 120.328125 85.496094 120.265625 85.46875 120.214844 85.421875 Z M 30.441406 86.070312 C 30.34375 85.972656 30.34375 85.816406 30.441406 85.71875 C 30.539062 85.625 30.695312 85.625 30.789062 85.71875 C 30.886719 85.816406 30.886719 85.972656 30.789062 86.070312 C 30.746094 86.117188 30.679688 86.140625 30.617188 86.140625 C 30.554688 86.140625 30.488281 86.117188 30.441406 86.070312 Z M 118.640625 86.996094 C 118.542969 86.902344 118.542969 86.742188 118.640625 86.644531 C 118.738281 86.550781 118.894531 86.550781 118.988281 86.644531 C 119.085938 86.742188 119.085938 86.902344 118.988281 86.996094 C 118.941406 87.042969 118.878906 87.070312 118.8125 87.070312 C 118.753906 87.070312 118.6875 87.042969 118.640625 86.996094 Z M 32.015625 87.644531 C 31.921875 87.546875 31.921875 87.390625 32.015625 87.292969 C 32.113281 87.199219 32.269531 87.199219 32.367188 87.292969 C 32.464844 87.390625 32.464844 87.546875 32.367188 87.644531 C 32.320312 87.691406 32.253906 87.71875 32.191406 87.71875 C 32.128906 87.71875 32.066406 87.691406 32.015625 87.644531 Z M 117.066406 88.570312 C 116.96875 88.476562 116.96875 88.316406 117.066406 88.222656 C 117.164062 88.125 117.320312 88.125 117.417969 88.222656 C 117.511719 88.316406 117.511719 88.476562 117.417969 88.570312 C 117.367188 88.621094 117.304688 88.644531 117.242188 88.644531 C 117.179688 88.644531 117.113281 88.621094 117.066406 88.570312 Z M 33.59375 89.21875 C 33.496094 89.121094 33.496094 88.964844 33.59375 88.867188 C 33.6875 88.769531 33.84375 88.769531 33.941406 88.867188 C 34.039062 88.964844 34.039062 89.121094 33.941406 89.21875 C 33.894531 89.265625 33.832031 89.289062 33.765625 89.289062 C 33.703125 89.289062 33.640625 89.265625 33.59375 89.21875 Z M 115.492188 90.148438 C 115.394531 90.050781 115.394531 89.894531 115.492188 89.796875 C 115.585938 89.699219 115.742188 89.699219 115.839844 89.796875 C 115.9375 89.894531 115.9375 90.050781 115.839844 90.148438 C 115.792969 90.195312 115.730469 90.21875 115.667969 90.21875 C 115.601562 90.21875 115.539062 90.195312 115.492188 90.148438 Z M 35.167969 90.792969 C 35.070312 90.695312 35.070312 90.542969 35.167969 90.445312 C 35.261719 90.347656 35.417969 90.347656 35.515625 90.445312 C 35.613281 90.542969 35.613281 90.695312 35.515625 90.792969 C 35.46875 90.84375 35.402344 90.867188 35.34375 90.867188 C 35.277344 90.867188 35.214844 90.84375 35.167969 90.792969 Z M 113.914062 91.722656 C 113.820312 91.625 113.820312 91.46875 113.914062 91.371094 C 114.011719 91.277344 114.167969 91.277344 114.265625 91.371094 C 114.363281 91.46875 114.363281 91.625 114.265625 91.722656 C 114.21875 91.769531 114.152344 91.792969 114.089844 91.792969 C 114.027344 91.792969 113.964844 91.769531 113.914062 91.722656 Z M 36.742188 92.371094 C 36.644531 92.273438 36.644531 92.113281 36.742188 92.019531 C 36.835938 91.921875 36.996094 91.921875 37.09375 92.019531 C 37.1875 92.113281 37.1875 92.273438 37.09375 92.371094 C 37.042969 92.417969 36.980469 92.441406 36.917969 92.441406 C 36.851562 92.441406 36.789062 92.417969 36.742188 92.371094 Z M 112.339844 93.296875 C 112.242188 93.203125 112.242188 93.042969 112.339844 92.945312 C 112.4375 92.851562 112.59375 92.851562 112.691406 92.945312 C 112.789062 93.042969 112.789062 93.203125 112.691406 93.296875 C 112.640625 93.34375 112.578125 93.371094 112.515625 93.371094 C 112.453125 93.371094 112.390625 93.34375 112.339844 93.296875 Z M 38.316406 93.945312 C 38.21875 93.847656 38.21875 93.691406 38.316406 93.59375 C 38.414062 93.496094 38.570312 93.496094 38.667969 93.59375 C 38.761719 93.691406 38.761719 93.847656 38.667969 93.945312 C 38.621094 93.992188 38.554688 94.015625 38.492188 94.015625 C 38.429688 94.015625 38.363281 93.992188 38.316406 93.945312 Z M 110.765625 94.871094 C 110.667969 94.773438 110.667969 94.621094 110.765625 94.523438 C 110.863281 94.425781 111.019531 94.425781 111.117188 94.523438 C 111.210938 94.621094 111.210938 94.773438 111.117188 94.871094 C 111.066406 94.917969 111.003906 94.945312 110.941406 94.945312 C 110.878906 94.945312 110.8125 94.917969 110.765625 94.871094 Z M 39.890625 95.515625 C 39.796875 95.421875 39.796875 95.265625 39.890625 95.167969 C 39.988281 95.074219 40.144531 95.074219 40.242188 95.167969 C 40.339844 95.265625 40.339844 95.421875 40.242188 95.515625 C 40.195312 95.566406 40.128906 95.589844 40.066406 95.589844 C 40.003906 95.589844 39.941406 95.566406 39.890625 95.515625 Z M 109.191406 96.445312 C 109.09375 96.351562 109.09375 96.195312 109.191406 96.097656 C 109.289062 96 109.445312 96 109.542969 96.097656 C 109.636719 96.195312 109.636719 96.351562 109.542969 96.445312 C 109.492188 96.496094 109.429688 96.519531 109.367188 96.519531 C 109.304688 96.519531 109.238281 96.496094 109.191406 96.445312 Z M 41.464844 97.09375 C 41.371094 97 41.371094 96.839844 41.464844 96.742188 C 41.5625 96.648438 41.71875 96.648438 41.816406 96.742188 C 41.914062 96.839844 41.914062 97 41.816406 97.09375 C 41.765625 97.140625 41.707031 97.164062 41.640625 97.164062 C 41.578125 97.164062 41.515625 97.140625 41.464844 97.09375 Z M 107.617188 98.023438 C 107.519531 97.925781 107.519531 97.765625 107.617188 97.671875 C 107.710938 97.574219 107.871094 97.574219 107.964844 97.671875 C 108.0625 97.765625 108.0625 97.925781 107.964844 98.023438 C 107.917969 98.070312 107.851562 98.09375 107.789062 98.09375 C 107.726562 98.09375 107.664062 98.070312 107.617188 98.023438 Z M 43.042969 98.667969 C 42.945312 98.570312 42.945312 98.414062 43.042969 98.320312 C 43.136719 98.222656 43.292969 98.222656 43.390625 98.320312 C 43.488281 98.414062 43.488281 98.570312 43.390625 98.667969 C 43.34375 98.71875 43.28125 98.742188 43.21875 98.742188 C 43.152344 98.742188 43.089844 98.71875 43.042969 98.667969 Z M 106.042969 99.597656 C 105.945312 99.5 105.945312 99.34375 106.042969 99.246094 C 106.136719 99.152344 106.292969 99.152344 106.390625 99.246094 C 106.488281 99.34375 106.488281 99.5 106.390625 99.597656 C 106.34375 99.644531 106.28125 99.667969 106.214844 99.667969 C 106.152344 99.667969 106.089844 99.644531 106.042969 99.597656 Z M 44.617188 100.246094 C 44.519531 100.148438 44.519531 99.992188 44.617188 99.894531 C 44.710938 99.796875 44.871094 99.796875 44.96875 99.894531 C 45.0625 99.992188 45.0625 100.148438 44.96875 100.246094 C 44.917969 100.292969 44.855469 100.316406 44.792969 100.316406 C 44.726562 100.316406 44.664062 100.292969 44.617188 100.246094 Z M 104.464844 101.167969 C 104.367188 101.074219 104.367188 100.917969 104.464844 100.820312 C 104.5625 100.726562 104.71875 100.726562 104.816406 100.820312 C 104.914062 100.917969 104.914062 101.074219 104.816406 101.167969 C 104.765625 101.21875 104.703125 101.246094 104.640625 101.246094 C 104.578125 101.246094 104.515625 101.21875 104.464844 101.167969 Z M 46.191406 101.820312 C 46.09375 101.722656 46.09375 101.566406 46.191406 101.46875 C 46.289062 101.371094 46.445312 101.371094 46.542969 101.46875 C 46.636719 101.566406 46.636719 101.722656 46.542969 101.820312 C 46.496094 101.867188 46.429688 101.890625 46.367188 101.890625 C 46.304688 101.890625 46.238281 101.867188 46.191406 101.820312 Z M 102.890625 102.746094 C 102.792969 102.652344 102.792969 102.496094 102.890625 102.394531 C 102.988281 102.300781 103.144531 102.300781 103.242188 102.394531 C 103.335938 102.496094 103.335938 102.652344 103.242188 102.746094 C 103.191406 102.792969 103.128906 102.816406 103.066406 102.816406 C 103.003906 102.816406 102.9375 102.792969 102.890625 102.746094 Z M 47.765625 103.394531 C 47.671875 103.296875 47.671875 103.140625 47.765625 103.042969 C 47.863281 102.949219 48.019531 102.949219 48.117188 103.042969 C 48.214844 103.140625 48.214844 103.296875 48.117188 103.394531 C 48.070312 103.441406 48.003906 103.46875 47.941406 103.46875 C 47.878906 103.46875 47.816406 103.441406 47.765625 103.394531 Z M 101.316406 104.320312 C 101.222656 104.226562 101.222656 104.066406 101.316406 103.972656 C 101.410156 103.875 101.570312 103.875 101.664062 103.972656 C 101.761719 104.066406 101.761719 104.226562 101.664062 104.320312 C 101.617188 104.371094 101.554688 104.394531 101.492188 104.394531 C 101.429688 104.394531 101.363281 104.371094 101.316406 104.320312 Z M 49.34375 104.96875 C 49.242188 104.871094 49.242188 104.714844 49.34375 104.617188 C 49.4375 104.523438 49.59375 104.523438 49.691406 104.617188 C 49.789062 104.714844 49.789062 104.871094 49.691406 104.96875 C 49.640625 105.015625 49.582031 105.042969 49.515625 105.042969 C 49.453125 105.042969 49.390625 105.015625 49.34375 104.96875 Z M 99.742188 105.898438 C 99.644531 105.800781 99.644531 105.640625 99.742188 105.546875 C 99.835938 105.449219 99.992188 105.449219 100.089844 105.546875 C 100.1875 105.640625 100.1875 105.800781 100.089844 105.898438 C 100.042969 105.945312 99.976562 105.96875 99.917969 105.96875 C 99.851562 105.96875 99.789062 105.945312 99.742188 105.898438 Z M 50.917969 106.542969 C 50.820312 106.445312 50.820312 106.289062 50.917969 106.195312 C 51.011719 106.097656 51.167969 106.097656 51.265625 106.195312 C 51.363281 106.289062 51.363281 106.445312 51.265625 106.542969 C 51.21875 106.59375 51.15625 106.617188 51.09375 106.617188 C 51.027344 106.617188 50.964844 106.59375 50.917969 106.542969 Z M 98.167969 107.472656 C 98.070312 107.375 98.070312 107.21875 98.167969 107.121094 C 98.261719 107.023438 98.417969 107.023438 98.515625 107.121094 C 98.613281 107.21875 98.613281 107.375 98.515625 107.472656 C 98.46875 107.519531 98.40625 107.542969 98.339844 107.542969 C 98.277344 107.542969 98.214844 107.519531 98.167969 107.472656 Z M 52.492188 108.121094 C 52.394531 108.023438 52.394531 107.867188 52.492188 107.769531 C 52.585938 107.671875 52.746094 107.671875 52.84375 107.769531 C 52.9375 107.867188 52.9375 108.023438 52.84375 108.121094 C 52.792969 108.167969 52.730469 108.191406 52.667969 108.191406 C 52.601562 108.191406 52.539062 108.167969 52.492188 108.121094 Z M 96.589844 109.042969 C 96.492188 108.949219 96.492188 108.792969 96.589844 108.695312 C 96.6875 108.601562 96.84375 108.601562 96.941406 108.695312 C 97.039062 108.792969 97.039062 108.949219 96.941406 109.042969 C 96.890625 109.09375 96.828125 109.121094 96.765625 109.121094 C 96.703125 109.121094 96.640625 109.09375 96.589844 109.042969 Z M 54.066406 109.695312 C 53.96875 109.597656 53.96875 109.441406 54.066406 109.34375 C 54.164062 109.25 54.320312 109.25 54.417969 109.34375 C 54.511719 109.441406 54.511719 109.597656 54.417969 109.695312 C 54.367188 109.742188 54.304688 109.765625 54.238281 109.765625 C 54.179688 109.765625 54.113281 109.742188 54.066406 109.695312 Z M 95.015625 110.621094 C 94.917969 110.527344 94.917969 110.367188 95.015625 110.269531 C 95.113281 110.175781 95.269531 110.175781 95.363281 110.269531 C 95.460938 110.367188 95.460938 110.527344 95.363281 110.621094 C 95.316406 110.667969 95.253906 110.695312 95.191406 110.695312 C 95.128906 110.695312 95.0625 110.667969 95.015625 110.621094 Z M 55.640625 111.269531 C 55.542969 111.171875 55.542969 111.015625 55.640625 110.917969 C 55.738281 110.820312 55.894531 110.820312 55.992188 110.917969 C 56.085938 111.015625 56.085938 111.171875 55.992188 111.269531 C 55.945312 111.316406 55.878906 111.34375 55.816406 111.34375 C 55.753906 111.34375 55.691406 111.316406 55.640625 111.269531 Z M 93.441406 112.195312 C 93.34375 112.097656 93.34375 111.941406 93.441406 111.847656 C 93.539062 111.75 93.695312 111.75 93.792969 111.847656 C 93.886719 111.941406 93.886719 112.097656 93.792969 112.195312 C 93.742188 112.246094 93.679688 112.269531 93.617188 112.269531 C 93.554688 112.269531 93.488281 112.246094 93.441406 112.195312 Z M 57.21875 112.84375 C 57.121094 112.746094 57.121094 112.59375 57.21875 112.492188 C 57.3125 112.398438 57.46875 112.398438 57.566406 112.492188 C 57.664062 112.59375 57.664062 112.746094 57.566406 112.84375 C 57.515625 112.890625 57.457031 112.914062 57.390625 112.914062 C 57.328125 112.914062 57.265625 112.890625 57.21875 112.84375 Z M 91.867188 113.773438 C 91.769531 113.675781 91.769531 113.519531 91.867188 113.421875 C 91.960938 113.324219 92.117188 113.324219 92.21875 113.421875 C 92.3125 113.519531 92.3125 113.675781 92.21875 113.773438 C 92.167969 113.820312 92.101562 113.84375 92.042969 113.84375 C 91.976562 113.84375 91.914062 113.820312 91.867188 113.773438 Z M 58.792969 114.417969 C 58.695312 114.324219 58.695312 114.164062 58.792969 114.070312 C 58.886719 113.972656 59.042969 113.972656 59.140625 114.070312 C 59.238281 114.164062 59.238281 114.324219 59.140625 114.417969 C 59.09375 114.46875 59.03125 114.492188 58.96875 114.492188 C 58.902344 114.492188 58.839844 114.46875 58.792969 114.417969 Z M 90.292969 115.347656 C 90.195312 115.25 90.195312 115.09375 90.292969 114.996094 C 90.386719 114.902344 90.542969 114.902344 90.640625 114.996094 C 90.738281 115.09375 90.738281 115.25 90.640625 115.347656 C 90.59375 115.394531 90.527344 115.417969 90.464844 115.417969 C 90.402344 115.417969 90.339844 115.394531 90.292969 115.347656 Z M 60.367188 115.996094 C 60.269531 115.898438 60.269531 115.738281 60.367188 115.644531 C 60.460938 115.546875 60.621094 115.546875 60.71875 115.644531 C 60.8125 115.738281 60.8125 115.898438 60.71875 115.996094 C 60.667969 116.042969 60.605469 116.066406 60.542969 116.066406 C 60.476562 116.066406 60.414062 116.042969 60.367188 115.996094 Z M 88.714844 116.921875 C 88.617188 116.824219 88.617188 116.667969 88.714844 116.570312 C 88.8125 116.476562 88.96875 116.476562 89.066406 116.570312 C 89.164062 116.667969 89.164062 116.824219 89.066406 116.921875 C 89.019531 116.96875 88.957031 116.996094 88.890625 116.996094 C 88.828125 116.996094 88.765625 116.96875 88.714844 116.921875 Z M 61.941406 117.570312 C 61.84375 117.472656 61.84375 117.316406 61.941406 117.21875 C 62.039062 117.121094 62.195312 117.121094 62.292969 117.21875 C 62.386719 117.316406 62.386719 117.472656 62.292969 117.570312 C 62.242188 117.617188 62.179688 117.640625 62.117188 117.640625 C 62.054688 117.640625 61.988281 117.617188 61.941406 117.570312 Z M 87.140625 118.496094 C 87.042969 118.398438 87.042969 118.242188 87.140625 118.144531 C 87.238281 118.050781 87.394531 118.050781 87.488281 118.144531 C 87.585938 118.242188 87.585938 118.398438 87.488281 118.496094 C 87.441406 118.542969 87.378906 118.570312 87.316406 118.570312 C 87.253906 118.570312 87.1875 118.542969 87.140625 118.496094 Z M 63.515625 119.140625 C 63.417969 119.046875 63.417969 118.890625 63.515625 118.792969 C 63.613281 118.695312 63.769531 118.695312 63.867188 118.792969 C 63.964844 118.890625 63.964844 119.046875 63.867188 119.140625 C 63.820312 119.191406 63.753906 119.21875 63.691406 119.21875 C 63.628906 119.21875 63.566406 119.191406 63.515625 119.140625 Z M 85.566406 120.070312 C 85.46875 119.976562 85.46875 119.816406 85.566406 119.722656 C 85.664062 119.625 85.820312 119.625 85.917969 119.722656 C 86.011719 119.816406 86.011719 119.976562 85.917969 120.070312 C 85.867188 120.121094 85.804688 120.140625 85.742188 120.140625 C 85.679688 120.140625 85.613281 120.121094 85.566406 120.070312 Z M 65.089844 120.71875 C 64.996094 120.621094 64.996094 120.464844 65.089844 120.367188 C 65.191406 120.273438 65.34375 120.273438 65.441406 120.367188 C 65.539062 120.464844 65.539062 120.621094 65.441406 120.71875 C 65.390625 120.765625 65.332031 120.789062 65.265625 120.789062 C 65.203125 120.789062 65.140625 120.765625 65.089844 120.71875 Z M 83.992188 121.648438 C 83.894531 121.550781 83.894531 121.390625 83.992188 121.296875 C 84.085938 121.199219 84.246094 121.199219 84.339844 121.296875 C 84.4375 121.390625 84.4375 121.550781 84.339844 121.648438 C 84.292969 121.695312 84.226562 121.71875 84.167969 121.71875 C 84.101562 121.71875 84.039062 121.695312 83.992188 121.648438 Z M 66.667969 122.292969 C 66.570312 122.195312 66.570312 122.039062 66.667969 121.945312 C 66.761719 121.847656 66.917969 121.847656 67.015625 121.945312 C 67.113281 122.039062 67.113281 122.195312 67.015625 122.292969 C 66.96875 122.34375 66.90625 122.367188 66.84375 122.367188 C 66.777344 122.367188 66.714844 122.34375 66.667969 122.292969 Z M 82.417969 123.222656 C 82.320312 123.125 82.320312 122.96875 82.417969 122.871094 C 82.511719 122.777344 82.667969 122.777344 82.765625 122.871094 C 82.863281 122.96875 82.863281 123.125 82.765625 123.222656 C 82.71875 123.269531 82.65625 123.292969 82.589844 123.292969 C 82.527344 123.292969 82.464844 123.269531 82.417969 123.222656 Z M 68.242188 123.871094 C 68.144531 123.773438 68.144531 123.613281 68.242188 123.519531 C 68.335938 123.421875 68.496094 123.421875 68.59375 123.519531 C 68.6875 123.613281 68.6875 123.773438 68.59375 123.871094 C 68.542969 123.917969 68.480469 123.941406 68.417969 123.941406 C 68.351562 123.941406 68.289062 123.917969 68.242188 123.871094 Z M 80.839844 124.796875 C 80.742188 124.703125 80.742188 124.542969 80.839844 124.445312 C 80.9375 124.347656 81.09375 124.347656 81.191406 124.445312 C 81.289062 124.542969 81.289062 124.703125 81.191406 124.796875 C 81.140625 124.84375 81.082031 124.871094 81.015625 124.871094 C 80.949219 124.871094 80.890625 124.84375 80.839844 124.796875 Z M 69.816406 125.445312 C 69.71875 125.347656 69.71875 125.191406 69.816406 125.089844 C 69.914062 124.996094 70.070312 124.996094 70.167969 125.089844 C 70.261719 125.191406 70.261719 125.347656 70.167969 125.445312 C 70.117188 125.492188 70.054688 125.515625 69.992188 125.515625 C 69.929688 125.515625 69.863281 125.492188 69.816406 125.445312 Z M 79.265625 126.371094 C 79.167969 126.273438 79.167969 126.117188 79.265625 126.019531 C 79.363281 125.925781 79.519531 125.925781 79.613281 126.019531 C 79.710938 126.117188 79.710938 126.273438 79.613281 126.371094 C 79.566406 126.417969 79.503906 126.441406 79.441406 126.441406 C 79.378906 126.441406 79.3125 126.417969 79.265625 126.371094 Z M 71.390625 127.015625 C 71.292969 126.921875 71.292969 126.765625 71.390625 126.667969 C 71.488281 126.574219 71.644531 126.574219 71.738281 126.667969 C 71.839844 126.765625 71.839844 126.921875 71.738281 127.015625 C 71.691406 127.066406 71.628906 127.09375 71.566406 127.09375 C 71.503906 127.09375 71.441406 127.066406 71.390625 127.015625 Z M 77.691406 127.945312 C 77.59375 127.851562 77.59375 127.691406 77.691406 127.597656 C 77.789062 127.5 77.945312 127.5 78.042969 127.597656 C 78.136719 127.691406 78.136719 127.851562 78.042969 127.945312 C 77.992188 127.996094 77.929688 128.019531 77.867188 128.019531 C 77.804688 128.019531 77.738281 127.996094 77.691406 127.945312 Z M 72.964844 128.59375 C 72.867188 128.496094 72.867188 128.339844 72.964844 128.242188 C 73.0625 128.144531 73.21875 128.144531 73.316406 128.242188 C 73.414062 128.339844 73.414062 128.496094 73.316406 128.59375 C 73.265625 128.640625 73.207031 128.664062 73.140625 128.664062 C 73.078125 128.664062 73.015625 128.640625 72.964844 128.59375 Z M 76.117188 129.523438 C 76.019531 129.425781 76.019531 129.265625 76.117188 129.171875 C 76.210938 129.074219 76.371094 129.074219 76.464844 129.171875 C 76.5625 129.265625 76.5625 129.425781 76.464844 129.523438 C 76.417969 129.570312 76.355469 129.59375 76.292969 129.59375 C 76.226562 129.59375 76.164062 129.570312 76.117188 129.523438 Z M 74.542969 130.167969 C 74.445312 130.070312 74.445312 129.914062 74.542969 129.820312 C 74.636719 129.722656 74.792969 129.722656 74.890625 129.820312 C 74.988281 129.914062 74.988281 130.070312 74.890625 130.167969 C 74.84375 130.21875 74.78125 130.238281 74.71875 130.238281 C 74.652344 130.238281 74.589844 130.21875 74.542969 130.167969 Z M 14.273438 73.859375 L 75.179688 134.761719 L 136.085938 73.859375 L 75.179688 12.953125 Z M 75.179688 135.359375 C 75.117188 135.359375 75.054688 135.335938 75.003906 135.289062 L 13.75 74.035156 C 13.652344 73.9375 13.652344 73.777344 13.75 73.683594 L 75.003906 12.429688 C 75.101562 12.332031 75.257812 12.332031 75.355469 12.429688 L 136.609375 73.683594 C 136.707031 73.777344 136.707031 73.9375 136.609375 74.035156 L 75.355469 135.289062 C 75.304688 135.335938 75.242188 135.359375 75.179688 135.359375 " fill-opacity="1" fill-rule="nonzero"/></g><g fill="#000000" fill-opacity="1"><g transform="translate(17.768414, 88.98237)"><g><path d="M 1.3125 -29.734375 L 9.515625 -29.734375 C 11.640625 -29.734375 13.234375 -29.144531 14.296875 -27.96875 C 15.359375 -26.789062 15.898438 -25.046875 15.921875 -22.734375 L 15.984375 -8.828125 C 16.015625 -5.898438 15.507812 -3.695312 14.46875 -2.21875 C 13.425781 -0.738281 11.707031 0 9.3125 0 L 1.3125 0 Z M 8.34375 -5.265625 C 9.425781 -5.265625 9.96875 -5.796875 9.96875 -6.859375 L 9.96875 -22.1875 C 9.96875 -22.851562 9.914062 -23.351562 9.8125 -23.6875 C 9.707031 -24.019531 9.515625 -24.242188 9.234375 -24.359375 C 8.960938 -24.472656 8.535156 -24.53125 7.953125 -24.53125 L 7.296875 -24.53125 L 7.296875 -5.265625 Z M 8.34375 -5.265625 "/></g></g></g><g fill="#000000" fill-opacity="1"><g transform="translate(33.344505, 88.98237)"><g><path d="M 8.203125 0.28125 C 5.753906 0.28125 3.9375 -0.410156 2.75 -1.796875 C 1.5625 -3.179688 0.96875 -5.234375 0.96875 -7.953125 L 0.96875 -29.734375 L 6.75 -29.734375 L 6.75 -8.203125 C 6.75 -7.253906 6.835938 -6.515625 7.015625 -5.984375 C 7.203125 -5.453125 7.597656 -5.1875 8.203125 -5.1875 C 8.804688 -5.1875 9.195312 -5.445312 9.375 -5.96875 C 9.5625 -6.488281 9.65625 -7.234375 9.65625 -8.203125 L 9.65625 -29.734375 L 15.4375 -29.734375 L 15.4375 -7.953125 C 15.4375 -5.234375 14.84375 -3.179688 13.65625 -1.796875 C 12.46875 -0.410156 10.648438 0.28125 8.203125 0.28125 Z M 8.203125 0.28125 "/></g></g></g><g fill="#000000" fill-opacity="1"><g transform="translate(48.262936, 88.98237)"><g><path d="M 1.3125 -29.734375 L 9.375 -29.734375 C 11.539062 -29.734375 13.113281 -29.203125 14.09375 -28.140625 C 15.082031 -27.078125 15.578125 -25.347656 15.578125 -22.953125 L 15.578125 -21.625 C 15.578125 -18.789062 14.5625 -17.097656 12.53125 -16.546875 C 13.769531 -16.222656 14.644531 -15.472656 15.15625 -14.296875 C 15.664062 -13.117188 15.921875 -11.5625 15.921875 -9.625 C 15.921875 -6.457031 15.445312 -4.0625 14.5 -2.4375 C 13.550781 -0.8125 11.84375 0 9.375 0 L 1.3125 0 Z M 8.34375 -18.546875 C 8.851562 -18.546875 9.195312 -18.734375 9.375 -19.109375 C 9.5625 -19.492188 9.65625 -20.035156 9.65625 -20.734375 L 9.65625 -23.703125 C 9.65625 -24.671875 9.226562 -25.15625 8.375 -25.15625 L 7.125 -25.15625 L 7.125 -18.546875 Z M 7.71875 -5.21875 C 9.257812 -5.21875 10.03125 -5.957031 10.03125 -7.4375 L 10.03125 -11.140625 C 10.03125 -12.046875 9.894531 -12.726562 9.625 -13.1875 C 9.363281 -13.644531 8.898438 -13.875 8.234375 -13.875 L 7.125 -13.875 L 7.125 -5.265625 Z M 7.71875 -5.21875 "/></g></g></g><g fill="#000000" fill-opacity="1"><g transform="translate(63.354437, 88.98237)"><g><path d="M 1.3125 -29.734375 L 9.171875 -29.734375 C 11.546875 -29.734375 13.238281 -28.960938 14.25 -27.421875 C 15.269531 -25.890625 15.78125 -23.648438 15.78125 -20.703125 C 15.78125 -17.742188 15.328125 -15.515625 14.421875 -14.015625 C 13.523438 -12.515625 11.914062 -11.765625 9.59375 -11.765625 L 7.171875 -11.765625 L 7.171875 0 L 1.3125 0 Z M 7.515625 -17.125 C 8.222656 -17.125 8.742188 -17.253906 9.078125 -17.515625 C 9.421875 -17.785156 9.640625 -18.171875 9.734375 -18.671875 C 9.835938 -19.171875 9.890625 -19.878906 9.890625 -20.796875 C 9.890625 -22.046875 9.75 -22.945312 9.46875 -23.5 C 9.195312 -24.050781 8.648438 -24.328125 7.828125 -24.328125 L 7.171875 -24.328125 L 7.171875 -17.125 Z M 7.515625 -17.125 "/></g></g></g><g fill="#000000" fill-opacity="1"><g transform="translate(78.203638, 88.98237)"><g><path d="M 1.3125 0 L 1.3125 -29.734375 L 7.265625 -29.734375 L 7.265625 -5.046875 L 13.390625 -5.046875 L 13.390625 0 Z M 1.3125 0 "/></g></g></g><g fill="#000000" fill-opacity="1"><g transform="translate(90.4568, 88.98237)"><g><path d="M 0.515625 0 L 3.390625 -29.734375 L 13.46875 -29.734375 L 16.296875 0 L 10.65625 0 L 10.25 -4.8125 L 6.640625 -4.8125 L 6.296875 0 Z M 7.09375 -9.546875 L 9.796875 -9.546875 L 8.484375 -24.671875 L 8.203125 -24.671875 Z M 7.09375 -9.546875 "/></g></g></g><g fill="#000000" fill-opacity="1"><g transform="translate(105.755987, 88.98237)"><g><path d="M 3.875 0 L 3.875 -24.015625 L 0.34375 -24.015625 L 0.34375 -29.734375 L 13.359375 -29.734375 L 13.359375 -24.015625 L 9.828125 -24.015625 L 9.828125 0 Z M 3.875 0 "/></g></g></g><g fill="#000000" fill-opacity="1"><g transform="translate(117.974539, 88.98237)"><g><path d="M 1.3125 0 L 1.3125 -29.734375 L 13.21875 -29.734375 L 13.21875 -23.984375 L 7.375 -23.984375 L 7.375 -18.203125 L 12.984375 -18.203125 L 12.984375 -12.59375 L 7.375 -12.59375 L 7.375 -5.78125 L 13.59375 -5.78125 L 13.59375 0 Z M 1.3125 0 "/></g></g></g><g fill="#000000" fill-opacity="1"><g transform="translate(37.970401, 144.551169)"><g><path d="M 1 -3.75 L 1 -0.359375 L 2.8125 -0.359375 L 2.8125 0 L 0.5625 0 L 0.5625 -3.75 Z M 1 -3.75 "/></g></g><g transform="translate(40.94147, 144.551169)"><g><path d="M 1.625 0.046875 C 1.351562 0.046875 1.117188 -0.00390625 0.921875 -0.109375 C 0.722656 -0.222656 0.570312 -0.390625 0.46875 -0.609375 C 0.363281 -0.828125 0.3125 -1.09375 0.3125 -1.40625 C 0.3125 -1.71875 0.363281 -1.984375 0.46875 -2.203125 C 0.570312 -2.429688 0.722656 -2.597656 0.921875 -2.703125 C 1.117188 -2.816406 1.351562 -2.875 1.625 -2.875 C 1.882812 -2.875 2.113281 -2.816406 2.3125 -2.703125 C 2.507812 -2.597656 2.660156 -2.429688 2.765625 -2.203125 C 2.878906 -1.984375 2.9375 -1.71875 2.9375 -1.40625 C 2.9375 -1.09375 2.878906 -0.828125 2.765625 -0.609375 C 2.660156 -0.390625 2.507812 -0.222656 2.3125 -0.109375 C 2.113281 -0.00390625 1.882812 0.046875 1.625 0.046875 Z M 1.625 -0.328125 C 1.90625 -0.328125 2.117188 -0.414062 2.265625 -0.59375 C 2.421875 -0.769531 2.5 -1.039062 2.5 -1.40625 C 2.5 -1.78125 2.421875 -2.054688 2.265625 -2.234375 C 2.117188 -2.410156 1.90625 -2.5 1.625 -2.5 C 1.34375 -2.5 1.125 -2.410156 0.96875 -2.234375 C 0.820312 -2.054688 0.75 -1.78125 0.75 -1.40625 C 0.75 -1.039062 0.820312 -0.769531 0.96875 -0.59375 C 1.125 -0.414062 1.34375 -0.328125 1.625 -0.328125 Z M 1.625 -0.328125 "/></g></g><g transform="translate(44.186831, 144.551169)"><g><path d="M 1.453125 1.203125 C 1.003906 1.203125 0.675781 1.125 0.46875 0.96875 C 0.269531 0.820312 0.171875 0.628906 0.171875 0.390625 C 0.171875 0.222656 0.21875 0.09375 0.3125 0 C 0.40625 -0.09375 0.546875 -0.160156 0.734375 -0.203125 L 0.734375 -0.25 C 0.648438 -0.300781 0.582031 -0.359375 0.53125 -0.421875 C 0.488281 -0.492188 0.46875 -0.570312 0.46875 -0.65625 C 0.46875 -0.769531 0.5 -0.859375 0.5625 -0.921875 C 0.632812 -0.992188 0.742188 -1.050781 0.890625 -1.09375 L 0.890625 -1.140625 C 0.578125 -1.304688 0.421875 -1.570312 0.421875 -1.9375 C 0.421875 -2.113281 0.460938 -2.273438 0.546875 -2.421875 C 0.628906 -2.566406 0.75 -2.675781 0.90625 -2.75 C 1.0625 -2.832031 1.242188 -2.875 1.453125 -2.875 C 1.691406 -2.875 1.890625 -2.820312 2.046875 -2.71875 C 2.109375 -2.789062 2.148438 -2.863281 2.171875 -2.9375 C 2.203125 -3.007812 2.222656 -3.097656 2.234375 -3.203125 L 2.296875 -3.234375 L 2.640625 -3.140625 C 2.617188 -3.003906 2.570312 -2.882812 2.5 -2.78125 C 2.4375 -2.6875 2.34375 -2.601562 2.21875 -2.53125 L 2.21875 -2.484375 C 2.300781 -2.410156 2.363281 -2.328125 2.40625 -2.234375 C 2.457031 -2.140625 2.484375 -2.023438 2.484375 -1.890625 C 2.484375 -1.710938 2.4375 -1.550781 2.34375 -1.40625 C 2.257812 -1.269531 2.140625 -1.160156 1.984375 -1.078125 C 1.828125 -0.992188 1.648438 -0.953125 1.453125 -0.953125 C 1.429688 -0.953125 1.390625 -0.957031 1.328125 -0.96875 C 1.253906 -0.96875 1.203125 -0.96875 1.171875 -0.96875 C 1.078125 -0.96875 1.003906 -0.941406 0.953125 -0.890625 C 0.898438 -0.847656 0.875 -0.789062 0.875 -0.71875 C 0.875 -0.632812 0.898438 -0.570312 0.953125 -0.53125 C 1.015625 -0.488281 1.113281 -0.460938 1.25 -0.453125 L 1.921875 -0.4375 C 2.203125 -0.425781 2.410156 -0.359375 2.546875 -0.234375 C 2.691406 -0.109375 2.765625 0.0664062 2.765625 0.296875 C 2.765625 0.460938 2.71875 0.613281 2.625 0.75 C 2.539062 0.882812 2.398438 0.992188 2.203125 1.078125 C 2.003906 1.160156 1.753906 1.203125 1.453125 1.203125 Z M 1.453125 -1.3125 C 1.648438 -1.3125 1.800781 -1.363281 1.90625 -1.46875 C 2.019531 -1.570312 2.078125 -1.71875 2.078125 -1.90625 C 2.078125 -2.101562 2.019531 -2.253906 1.90625 -2.359375 C 1.800781 -2.460938 1.648438 -2.515625 1.453125 -2.515625 C 1.253906 -2.515625 1.097656 -2.460938 0.984375 -2.359375 C 0.878906 -2.253906 0.828125 -2.101562 0.828125 -1.90625 C 0.828125 -1.71875 0.878906 -1.570312 0.984375 -1.46875 C 1.097656 -1.363281 1.253906 -1.3125 1.453125 -1.3125 Z M 1.453125 0.84375 C 1.660156 0.84375 1.832031 0.816406 1.96875 0.765625 C 2.101562 0.722656 2.195312 0.660156 2.25 0.578125 C 2.3125 0.503906 2.34375 0.421875 2.34375 0.328125 C 2.34375 0.242188 2.328125 0.175781 2.296875 0.125 C 2.265625 0.0703125 2.210938 0.0351562 2.140625 0.015625 C 2.066406 -0.00390625 1.972656 -0.0195312 1.859375 -0.03125 L 1.21875 -0.0625 L 1.125 -0.0625 C 0.769531 -0.0625 0.59375 0.0703125 0.59375 0.34375 C 0.59375 0.675781 0.878906 0.84375 1.453125 0.84375 Z M 1.453125 0.84375 "/></g></g><g transform="translate(47.083559, 144.551169)"><g><path d="M 1.625 0.046875 C 1.351562 0.046875 1.117188 -0.00390625 0.921875 -0.109375 C 0.722656 -0.222656 0.570312 -0.390625 0.46875 -0.609375 C 0.363281 -0.828125 0.3125 -1.09375 0.3125 -1.40625 C 0.3125 -1.71875 0.363281 -1.984375 0.46875 -2.203125 C 0.570312 -2.429688 0.722656 -2.597656 0.921875 -2.703125 C 1.117188 -2.816406 1.351562 -2.875 1.625 -2.875 C 1.882812 -2.875 2.113281 -2.816406 2.3125 -2.703125 C 2.507812 -2.597656 2.660156 -2.429688 2.765625 -2.203125 C 2.878906 -1.984375 2.9375 -1.71875 2.9375 -1.40625 C 2.9375 -1.09375 2.878906 -0.828125 2.765625 -0.609375 C 2.660156 -0.390625 2.507812 -0.222656 2.3125 -0.109375 C 2.113281 -0.00390625 1.882812 0.046875 1.625 0.046875 Z M 1.625 -0.328125 C 1.90625 -0.328125 2.117188 -0.414062 2.265625 -0.59375 C 2.421875 -0.769531 2.5 -1.039062 2.5 -1.40625 C 2.5 -1.78125 2.421875 -2.054688 2.265625 -2.234375 C 2.117188 -2.410156 1.90625 -2.5 1.625 -2.5 C 1.34375 -2.5 1.125 -2.410156 0.96875 -2.234375 C 0.820312 -2.054688 0.75 -1.78125 0.75 -1.40625 C 0.75 -1.039062 0.820312 -0.769531 0.96875 -0.59375 C 1.125 -0.414062 1.34375 -0.328125 1.625 -0.328125 Z M 1.625 -0.328125 "/></g></g><g transform="translate(50.32892, 144.551169)"><g/></g><g transform="translate(51.615786, 144.551169)"><g><path d="M 1.625 0.046875 C 1.375 0.046875 1.148438 -0.00390625 0.953125 -0.109375 C 0.753906 -0.222656 0.597656 -0.390625 0.484375 -0.609375 C 0.367188 -0.835938 0.3125 -1.101562 0.3125 -1.40625 C 0.3125 -1.71875 0.367188 -1.984375 0.484375 -2.203125 C 0.597656 -2.429688 0.753906 -2.597656 0.953125 -2.703125 C 1.148438 -2.816406 1.375 -2.875 1.625 -2.875 C 1.925781 -2.875 2.164062 -2.816406 2.34375 -2.703125 C 2.519531 -2.597656 2.644531 -2.453125 2.71875 -2.265625 L 2.4375 -2.0625 L 2.390625 -2.0625 C 2.304688 -2.21875 2.203125 -2.328125 2.078125 -2.390625 C 1.960938 -2.460938 1.8125 -2.5 1.625 -2.5 C 1.445312 -2.5 1.289062 -2.457031 1.15625 -2.375 C 1.03125 -2.300781 0.929688 -2.179688 0.859375 -2.015625 C 0.785156 -1.847656 0.75 -1.644531 0.75 -1.40625 C 0.75 -1.175781 0.785156 -0.976562 0.859375 -0.8125 C 0.929688 -0.644531 1.03125 -0.519531 1.15625 -0.4375 C 1.289062 -0.363281 1.445312 -0.328125 1.625 -0.328125 C 1.820312 -0.328125 1.984375 -0.367188 2.109375 -0.453125 C 2.234375 -0.546875 2.335938 -0.6875 2.421875 -0.875 L 2.46875 -0.875 L 2.75 -0.71875 C 2.664062 -0.476562 2.53125 -0.289062 2.34375 -0.15625 C 2.15625 -0.0195312 1.914062 0.046875 1.625 0.046875 Z M 1.625 0.046875 "/></g></g><g transform="translate(54.530458, 144.551169)"><g><path d="M 1.625 0.046875 C 1.351562 0.046875 1.117188 -0.00390625 0.921875 -0.109375 C 0.722656 -0.222656 0.570312 -0.390625 0.46875 -0.609375 C 0.363281 -0.828125 0.3125 -1.09375 0.3125 -1.40625 C 0.3125 -1.71875 0.363281 -1.984375 0.46875 -2.203125 C 0.570312 -2.429688 0.722656 -2.597656 0.921875 -2.703125 C 1.117188 -2.816406 1.351562 -2.875 1.625 -2.875 C 1.882812 -2.875 2.113281 -2.816406 2.3125 -2.703125 C 2.507812 -2.597656 2.660156 -2.429688 2.765625 -2.203125 C 2.878906 -1.984375 2.9375 -1.71875 2.9375 -1.40625 C 2.9375 -1.09375 2.878906 -0.828125 2.765625 -0.609375 C 2.660156 -0.390625 2.507812 -0.222656 2.3125 -0.109375 C 2.113281 -0.00390625 1.882812 0.046875 1.625 0.046875 Z M 1.625 -0.328125 C 1.90625 -0.328125 2.117188 -0.414062 2.265625 -0.59375 C 2.421875 -0.769531 2.5 -1.039062 2.5 -1.40625 C 2.5 -1.78125 2.421875 -2.054688 2.265625 -2.234375 C 2.117188 -2.410156 1.90625 -2.5 1.625 -2.5 C 1.34375 -2.5 1.125 -2.410156 0.96875 -2.234375 C 0.820312 -2.054688 0.75 -1.78125 0.75 -1.40625 C 0.75 -1.039062 0.820312 -0.769531 0.96875 -0.59375 C 1.125 -0.414062 1.34375 -0.328125 1.625 -0.328125 Z M 1.625 -0.328125 "/></g></g><g transform="translate(57.775819, 144.551169)"><g><path d="M 1.390625 0.046875 C 1.078125 0.046875 0.84375 -0.0351562 0.6875 -0.203125 C 0.53125 -0.367188 0.453125 -0.613281 0.453125 -0.9375 L 0.453125 -2.828125 L 0.859375 -2.828125 L 0.859375 -0.953125 C 0.859375 -0.523438 1.0625 -0.3125 1.46875 -0.3125 C 1.726562 -0.3125 1.929688 -0.394531 2.078125 -0.5625 C 2.222656 -0.726562 2.296875 -1 2.296875 -1.375 L 2.296875 -2.828125 L 2.71875 -2.828125 L 2.71875 0 L 2.328125 0 L 2.328125 -0.4375 L 2.265625 -0.453125 C 2.171875 -0.285156 2.054688 -0.160156 1.921875 -0.078125 C 1.785156 0.00390625 1.609375 0.046875 1.390625 0.046875 Z M 1.390625 0.046875 "/></g></g><g transform="translate(60.987855, 144.551169)"><g><path d="M 0.5 0 L 0.5 -2.828125 L 0.890625 -2.828125 L 0.890625 -2.390625 L 0.9375 -2.375 C 1.070312 -2.695312 1.320312 -2.859375 1.6875 -2.859375 C 1.875 -2.859375 2.019531 -2.820312 2.125 -2.75 L 2.015625 -2.390625 L 1.96875 -2.390625 C 1.851562 -2.441406 1.734375 -2.46875 1.609375 -2.46875 C 1.390625 -2.46875 1.21875 -2.378906 1.09375 -2.203125 C 0.96875 -2.035156 0.90625 -1.765625 0.90625 -1.390625 L 0.90625 0 Z M 0.5 0 "/></g></g><g transform="translate(63.171937, 144.551169)"><g><path d="M 1.90625 -0.453125 L 2.046875 -0.15625 C 1.984375 -0.0820312 1.894531 -0.03125 1.78125 0 C 1.675781 0.03125 1.5625 0.046875 1.4375 0.046875 C 0.894531 0.046875 0.625 -0.222656 0.625 -0.765625 L 0.625 -2.484375 L 0.125 -2.484375 L 0.125 -2.828125 L 0.625 -2.828125 L 0.625 -3.421875 L 1.03125 -3.5 L 1.03125 -2.828125 L 1.953125 -2.828125 L 1.953125 -2.484375 L 1.03125 -2.484375 L 1.03125 -0.8125 C 1.03125 -0.488281 1.175781 -0.328125 1.46875 -0.328125 C 1.613281 -0.328125 1.742188 -0.367188 1.859375 -0.453125 Z M 1.90625 -0.453125 "/></g></g><g transform="translate(65.325258, 144.551169)"><g><path d="M 2.6875 -1.3125 L 0.75 -1.3125 C 0.757812 -0.96875 0.84375 -0.71875 1 -0.5625 C 1.15625 -0.40625 1.363281 -0.328125 1.625 -0.328125 C 1.832031 -0.328125 1.992188 -0.359375 2.109375 -0.421875 C 2.234375 -0.492188 2.332031 -0.609375 2.40625 -0.765625 L 2.453125 -0.765625 L 2.734375 -0.609375 C 2.648438 -0.398438 2.515625 -0.238281 2.328125 -0.125 C 2.148438 -0.0078125 1.914062 0.046875 1.625 0.046875 C 1.351562 0.046875 1.117188 -0.00390625 0.921875 -0.109375 C 0.722656 -0.210938 0.570312 -0.375 0.46875 -0.59375 C 0.363281 -0.8125 0.3125 -1.082031 0.3125 -1.40625 C 0.3125 -1.726562 0.363281 -2 0.46875 -2.21875 C 0.582031 -2.445312 0.738281 -2.613281 0.9375 -2.71875 C 1.132812 -2.820312 1.359375 -2.875 1.609375 -2.875 C 1.960938 -2.875 2.238281 -2.769531 2.4375 -2.5625 C 2.644531 -2.363281 2.753906 -2.066406 2.765625 -1.671875 C 2.765625 -1.515625 2.757812 -1.40625 2.75 -1.34375 Z M 2.34375 -1.671875 C 2.332031 -1.972656 2.265625 -2.191406 2.140625 -2.328125 C 2.015625 -2.460938 1.835938 -2.53125 1.609375 -2.53125 C 1.359375 -2.53125 1.160156 -2.457031 1.015625 -2.3125 C 0.878906 -2.175781 0.796875 -1.960938 0.765625 -1.671875 Z M 2.34375 -1.671875 "/></g></g><g transform="translate(68.339906, 144.551169)"><g><path d="M 1.296875 0.046875 C 1.109375 0.046875 0.9375 0.0234375 0.78125 -0.015625 C 0.632812 -0.0664062 0.507812 -0.128906 0.40625 -0.203125 C 0.300781 -0.285156 0.226562 -0.378906 0.1875 -0.484375 L 0.4375 -0.75 L 0.5 -0.75 C 0.582031 -0.601562 0.6875 -0.492188 0.8125 -0.421875 C 0.945312 -0.359375 1.109375 -0.328125 1.296875 -0.328125 C 1.503906 -0.328125 1.660156 -0.363281 1.765625 -0.4375 C 1.867188 -0.519531 1.921875 -0.632812 1.921875 -0.78125 C 1.921875 -0.894531 1.890625 -0.988281 1.828125 -1.0625 C 1.765625 -1.132812 1.660156 -1.1875 1.515625 -1.21875 L 1.03125 -1.34375 C 0.78125 -1.40625 0.59375 -1.5 0.46875 -1.625 C 0.351562 -1.757812 0.296875 -1.925781 0.296875 -2.125 C 0.296875 -2.28125 0.332031 -2.414062 0.40625 -2.53125 C 0.488281 -2.644531 0.601562 -2.726562 0.75 -2.78125 C 0.90625 -2.84375 1.082031 -2.875 1.28125 -2.875 C 1.539062 -2.875 1.742188 -2.835938 1.890625 -2.765625 C 2.046875 -2.691406 2.164062 -2.59375 2.25 -2.46875 L 2.015625 -2.234375 L 1.96875 -2.234375 C 1.875 -2.335938 1.769531 -2.410156 1.65625 -2.453125 C 1.550781 -2.503906 1.425781 -2.53125 1.28125 -2.53125 C 1.09375 -2.53125 0.945312 -2.492188 0.84375 -2.421875 C 0.75 -2.359375 0.703125 -2.265625 0.703125 -2.140625 C 0.703125 -2.023438 0.738281 -1.929688 0.8125 -1.859375 C 0.882812 -1.796875 1.003906 -1.742188 1.171875 -1.703125 L 1.640625 -1.578125 C 1.890625 -1.523438 2.066406 -1.429688 2.171875 -1.296875 C 2.285156 -1.160156 2.34375 -0.988281 2.34375 -0.78125 C 2.34375 -0.613281 2.300781 -0.46875 2.21875 -0.34375 C 2.144531 -0.21875 2.03125 -0.117188 1.875 -0.046875 C 1.71875 0.015625 1.523438 0.046875 1.296875 0.046875 Z M 1.296875 0.046875 "/></g></g><g transform="translate(70.954652, 144.551169)"><g><path d="M 2.390625 -2.828125 L 2.828125 -2.828125 L 1.5625 0.4375 C 1.488281 0.625 1.40625 0.769531 1.3125 0.875 C 1.226562 0.988281 1.125 1.070312 1 1.125 C 0.882812 1.175781 0.738281 1.203125 0.5625 1.203125 C 0.46875 1.203125 0.378906 1.191406 0.296875 1.171875 C 0.210938 1.160156 0.140625 1.140625 0.078125 1.109375 L 0.15625 0.78125 L 0.203125 0.765625 C 0.242188 0.785156 0.296875 0.800781 0.359375 0.8125 C 0.421875 0.820312 0.484375 0.828125 0.546875 0.828125 C 0.660156 0.828125 0.753906 0.8125 0.828125 0.78125 C 0.910156 0.757812 0.976562 0.710938 1.03125 0.640625 C 1.082031 0.566406 1.128906 0.46875 1.171875 0.34375 L 1.28125 0.0625 L 0.140625 -2.828125 L 0.59375 -2.828125 L 1.484375 -0.515625 L 1.53125 -0.515625 Z M 2.390625 -2.828125 "/></g></g><g transform="translate(73.935975, 144.551169)"><g/></g><g transform="translate(75.22284, 144.551169)"><g><path d="M 1.625 0.046875 C 1.351562 0.046875 1.117188 -0.00390625 0.921875 -0.109375 C 0.722656 -0.222656 0.570312 -0.390625 0.46875 -0.609375 C 0.363281 -0.828125 0.3125 -1.09375 0.3125 -1.40625 C 0.3125 -1.71875 0.363281 -1.984375 0.46875 -2.203125 C 0.570312 -2.429688 0.722656 -2.597656 0.921875 -2.703125 C 1.117188 -2.816406 1.351562 -2.875 1.625 -2.875 C 1.882812 -2.875 2.113281 -2.816406 2.3125 -2.703125 C 2.507812 -2.597656 2.660156 -2.429688 2.765625 -2.203125 C 2.878906 -1.984375 2.9375 -1.71875 2.9375 -1.40625 C 2.9375 -1.09375 2.878906 -0.828125 2.765625 -0.609375 C 2.660156 -0.390625 2.507812 -0.222656 2.3125 -0.109375 C 2.113281 -0.00390625 1.882812 0.046875 1.625 0.046875 Z M 1.625 -0.328125 C 1.90625 -0.328125 2.117188 -0.414062 2.265625 -0.59375 C 2.421875 -0.769531 2.5 -1.039062 2.5 -1.40625 C 2.5 -1.78125 2.421875 -2.054688 2.265625 -2.234375 C 2.117188 -2.410156 1.90625 -2.5 1.625 -2.5 C 1.34375 -2.5 1.125 -2.410156 0.96875 -2.234375 C 0.820312 -2.054688 0.75 -1.78125 0.75 -1.40625 C 0.75 -1.039062 0.820312 -0.769531 0.96875 -0.59375 C 1.125 -0.414062 1.34375 -0.328125 1.625 -0.328125 Z M 1.625 -0.328125 "/></g></g><g transform="translate(78.468201, 144.551169)"><g><path d="M 1.5 -3.65625 C 1.332031 -3.65625 1.207031 -3.613281 1.125 -3.53125 C 1.039062 -3.445312 1 -3.328125 1 -3.171875 C 1 -3.066406 1.015625 -2.953125 1.046875 -2.828125 L 1.953125 -2.828125 L 1.953125 -2.484375 L 1.046875 -2.484375 L 1.046875 0 L 0.625 0 L 0.625 -2.484375 L 0.140625 -2.484375 L 0.140625 -2.828125 L 0.625 -2.828125 C 0.59375 -2.953125 0.578125 -3.070312 0.578125 -3.1875 C 0.578125 -3.363281 0.613281 -3.515625 0.6875 -3.640625 C 0.769531 -3.765625 0.878906 -3.859375 1.015625 -3.921875 C 1.160156 -3.984375 1.320312 -4.015625 1.5 -4.015625 C 1.78125 -4.015625 2 -3.953125 2.15625 -3.828125 L 1.984375 -3.546875 L 1.9375 -3.53125 C 1.820312 -3.613281 1.675781 -3.65625 1.5 -3.65625 Z M 1.5 -3.65625 "/></g></g><g transform="translate(80.483094, 144.551169)"><g/></g><g transform="translate(81.769959, 144.551169)"><g><path d="M 1 -3.75 L 1 -0.359375 L 2.8125 -0.359375 L 2.8125 0 L 0.5625 0 L 0.5625 -3.75 Z M 1 -3.75 "/></g></g><g transform="translate(84.741028, 144.551169)"><g><path d="M 1.625 0.046875 C 1.351562 0.046875 1.117188 -0.00390625 0.921875 -0.109375 C 0.722656 -0.222656 0.570312 -0.390625 0.46875 -0.609375 C 0.363281 -0.828125 0.3125 -1.09375 0.3125 -1.40625 C 0.3125 -1.71875 0.363281 -1.984375 0.46875 -2.203125 C 0.570312 -2.429688 0.722656 -2.597656 0.921875 -2.703125 C 1.117188 -2.816406 1.351562 -2.875 1.625 -2.875 C 1.882812 -2.875 2.113281 -2.816406 2.3125 -2.703125 C 2.507812 -2.597656 2.660156 -2.429688 2.765625 -2.203125 C 2.878906 -1.984375 2.9375 -1.71875 2.9375 -1.40625 C 2.9375 -1.09375 2.878906 -0.828125 2.765625 -0.609375 C 2.660156 -0.390625 2.507812 -0.222656 2.3125 -0.109375 C 2.113281 -0.00390625 1.882812 0.046875 1.625 0.046875 Z M 1.625 -0.328125 C 1.90625 -0.328125 2.117188 -0.414062 2.265625 -0.59375 C 2.421875 -0.769531 2.5 -1.039062 2.5 -1.40625 C 2.5 -1.78125 2.421875 -2.054688 2.265625 -2.234375 C 2.117188 -2.410156 1.90625 -2.5 1.625 -2.5 C 1.34375 -2.5 1.125 -2.410156 0.96875 -2.234375 C 0.820312 -2.054688 0.75 -1.78125 0.75 -1.40625 C 0.75 -1.039062 0.820312 -0.769531 0.96875 -0.59375 C 1.125 -0.414062 1.34375 -0.328125 1.625 -0.328125 Z M 1.625 -0.328125 "/></g></g><g transform="translate(87.986389, 144.551169)"><g><path d="M 1.453125 1.203125 C 1.003906 1.203125 0.675781 1.125 0.46875 0.96875 C 0.269531 0.820312 0.171875 0.628906 0.171875 0.390625 C 0.171875 0.222656 0.21875 0.09375 0.3125 0 C 0.40625 -0.09375 0.546875 -0.160156 0.734375 -0.203125 L 0.734375 -0.25 C 0.648438 -0.300781 0.582031 -0.359375 0.53125 -0.421875 C 0.488281 -0.492188 0.46875 -0.570312 0.46875 -0.65625 C 0.46875 -0.769531 0.5 -0.859375 0.5625 -0.921875 C 0.632812 -0.992188 0.742188 -1.050781 0.890625 -1.09375 L 0.890625 -1.140625 C 0.578125 -1.304688 0.421875 -1.570312 0.421875 -1.9375 C 0.421875 -2.113281 0.460938 -2.273438 0.546875 -2.421875 C 0.628906 -2.566406 0.75 -2.675781 0.90625 -2.75 C 1.0625 -2.832031 1.242188 -2.875 1.453125 -2.875 C 1.691406 -2.875 1.890625 -2.820312 2.046875 -2.71875 C 2.109375 -2.789062 2.148438 -2.863281 2.171875 -2.9375 C 2.203125 -3.007812 2.222656 -3.097656 2.234375 -3.203125 L 2.296875 -3.234375 L 2.640625 -3.140625 C 2.617188 -3.003906 2.570312 -2.882812 2.5 -2.78125 C 2.4375 -2.6875 2.34375 -2.601562 2.21875 -2.53125 L 2.21875 -2.484375 C 2.300781 -2.410156 2.363281 -2.328125 2.40625 -2.234375 C 2.457031 -2.140625 2.484375 -2.023438 2.484375 -1.890625 C 2.484375 -1.710938 2.4375 -1.550781 2.34375 -1.40625 C 2.257812 -1.269531 2.140625 -1.160156 1.984375 -1.078125 C 1.828125 -0.992188 1.648438 -0.953125 1.453125 -0.953125 C 1.429688 -0.953125 1.390625 -0.957031 1.328125 -0.96875 C 1.253906 -0.96875 1.203125 -0.96875 1.171875 -0.96875 C 1.078125 -0.96875 1.003906 -0.941406 0.953125 -0.890625 C 0.898438 -0.847656 0.875 -0.789062 0.875 -0.71875 C 0.875 -0.632812 0.898438 -0.570312 0.953125 -0.53125 C 1.015625 -0.488281 1.113281 -0.460938 1.25 -0.453125 L 1.921875 -0.4375 C 2.203125 -0.425781 2.410156 -0.359375 2.546875 -0.234375 C 2.691406 -0.109375 2.765625 0.0664062 2.765625 0.296875 C 2.765625 0.460938 2.71875 0.613281 2.625 0.75 C 2.539062 0.882812 2.398438 0.992188 2.203125 1.078125 C 2.003906 1.160156 1.753906 1.203125 1.453125 1.203125 Z M 1.453125 -1.3125 C 1.648438 -1.3125 1.800781 -1.363281 1.90625 -1.46875 C 2.019531 -1.570312 2.078125 -1.71875 2.078125 -1.90625 C 2.078125 -2.101562 2.019531 -2.253906 1.90625 -2.359375 C 1.800781 -2.460938 1.648438 -2.515625 1.453125 -2.515625 C 1.253906 -2.515625 1.097656 -2.460938 0.984375 -2.359375 C 0.878906 -2.253906 0.828125 -2.101562 0.828125 -1.90625 C 0.828125 -1.71875 0.878906 -1.570312 0.984375 -1.46875 C 1.097656 -1.363281 1.253906 -1.3125 1.453125 -1.3125 Z M 1.453125 0.84375 C 1.660156 0.84375 1.832031 0.816406 1.96875 0.765625 C 2.101562 0.722656 2.195312 0.660156 2.25 0.578125 C 2.3125 0.503906 2.34375 0.421875 2.34375 0.328125 C 2.34375 0.242188 2.328125 0.175781 2.296875 0.125 C 2.265625 0.0703125 2.210938 0.0351562 2.140625 0.015625 C 2.066406 -0.00390625 1.972656 -0.0195312 1.859375 -0.03125 L 1.21875 -0.0625 L 1.125 -0.0625 C 0.769531 -0.0625 0.59375 0.0703125 0.59375 0.34375 C 0.59375 0.675781 0.878906 0.84375 1.453125 0.84375 Z M 1.453125 0.84375 "/></g></g><g transform="translate(90.883117, 144.551169)"><g><path d="M 1.171875 0.046875 C 0.890625 0.046875 0.671875 -0.0195312 0.515625 -0.15625 C 0.359375 -0.300781 0.28125 -0.507812 0.28125 -0.78125 C 0.28125 -0.945312 0.3125 -1.085938 0.375 -1.203125 C 0.445312 -1.328125 0.554688 -1.425781 0.703125 -1.5 C 0.847656 -1.570312 1.039062 -1.625 1.28125 -1.65625 C 1.476562 -1.695312 1.628906 -1.738281 1.734375 -1.78125 C 1.847656 -1.820312 1.921875 -1.867188 1.953125 -1.921875 C 1.992188 -1.972656 2.015625 -2.039062 2.015625 -2.125 C 2.015625 -2.25 1.96875 -2.34375 1.875 -2.40625 C 1.789062 -2.476562 1.648438 -2.515625 1.453125 -2.515625 C 1.273438 -2.515625 1.117188 -2.476562 0.984375 -2.40625 C 0.859375 -2.332031 0.738281 -2.226562 0.625 -2.09375 L 0.578125 -2.09375 L 0.375 -2.390625 C 0.488281 -2.535156 0.640625 -2.648438 0.828125 -2.734375 C 1.015625 -2.828125 1.222656 -2.875 1.453125 -2.875 C 1.785156 -2.875 2.03125 -2.800781 2.1875 -2.65625 C 2.351562 -2.507812 2.4375 -2.3125 2.4375 -2.0625 L 2.4375 -0.5625 C 2.4375 -0.40625 2.5 -0.328125 2.625 -0.328125 C 2.675781 -0.328125 2.722656 -0.332031 2.765625 -0.34375 L 2.796875 -0.328125 L 2.84375 -0.046875 C 2.8125 -0.0234375 2.769531 -0.0078125 2.71875 0 C 2.664062 0.0078125 2.613281 0.015625 2.5625 0.015625 C 2.40625 0.015625 2.285156 -0.015625 2.203125 -0.078125 C 2.128906 -0.148438 2.082031 -0.253906 2.0625 -0.390625 L 2 -0.390625 C 1.925781 -0.242188 1.820312 -0.132812 1.6875 -0.0625 C 1.550781 0.0078125 1.378906 0.046875 1.171875 0.046875 Z M 1.265625 -0.28125 C 1.421875 -0.28125 1.554688 -0.316406 1.671875 -0.390625 C 1.785156 -0.460938 1.875 -0.5625 1.9375 -0.6875 C 2 -0.820312 2.03125 -0.976562 2.03125 -1.15625 L 2.03125 -1.515625 L 1.96875 -1.515625 C 1.90625 -1.472656 1.828125 -1.4375 1.734375 -1.40625 C 1.648438 -1.375 1.523438 -1.347656 1.359375 -1.328125 C 1.203125 -1.304688 1.070312 -1.269531 0.96875 -1.21875 C 0.875 -1.175781 0.804688 -1.117188 0.765625 -1.046875 C 0.722656 -0.972656 0.703125 -0.882812 0.703125 -0.78125 C 0.703125 -0.613281 0.75 -0.488281 0.84375 -0.40625 C 0.945312 -0.320312 1.085938 -0.28125 1.265625 -0.28125 Z M 1.265625 -0.28125 "/></g></g><g transform="translate(93.808044, 144.551169)"><g><path d="M 0.5 0 L 0.5 -2.828125 L 0.890625 -2.828125 L 0.890625 -2.390625 L 0.9375 -2.375 C 1.03125 -2.539062 1.148438 -2.664062 1.296875 -2.75 C 1.441406 -2.832031 1.625 -2.875 1.84375 -2.875 C 2.175781 -2.875 2.421875 -2.785156 2.578125 -2.609375 C 2.734375 -2.441406 2.8125 -2.175781 2.8125 -1.8125 L 2.8125 0 L 2.390625 0 L 2.390625 -1.8125 C 2.390625 -1.976562 2.367188 -2.113281 2.328125 -2.21875 C 2.285156 -2.320312 2.21875 -2.394531 2.125 -2.4375 C 2.03125 -2.488281 1.910156 -2.515625 1.765625 -2.515625 C 1.503906 -2.515625 1.296875 -2.429688 1.140625 -2.265625 C 0.984375 -2.097656 0.90625 -1.828125 0.90625 -1.453125 L 0.90625 0 Z M 0.5 0 "/></g></g><g transform="translate(97.063659, 144.551169)"><g/></g><g transform="translate(98.350524, 144.551169)"><g><path d="M 1.640625 0.046875 C 1.398438 0.046875 1.1875 0.015625 1 -0.046875 C 0.8125 -0.109375 0.65625 -0.191406 0.53125 -0.296875 C 0.40625 -0.398438 0.3125 -0.515625 0.25 -0.640625 L 0.5 -0.9375 L 0.5625 -0.9375 C 0.789062 -0.539062 1.148438 -0.34375 1.640625 -0.34375 C 1.921875 -0.34375 2.128906 -0.398438 2.265625 -0.515625 C 2.398438 -0.640625 2.46875 -0.804688 2.46875 -1.015625 C 2.46875 -1.140625 2.445312 -1.242188 2.40625 -1.328125 C 2.363281 -1.410156 2.289062 -1.484375 2.1875 -1.546875 C 2.082031 -1.609375 1.9375 -1.660156 1.75 -1.703125 L 1.3125 -1.8125 C 0.988281 -1.882812 0.75 -2.003906 0.59375 -2.171875 C 0.4375 -2.347656 0.359375 -2.570312 0.359375 -2.84375 C 0.359375 -3.03125 0.40625 -3.195312 0.5 -3.34375 C 0.601562 -3.488281 0.742188 -3.597656 0.921875 -3.671875 C 1.109375 -3.753906 1.332031 -3.796875 1.59375 -3.796875 C 1.875 -3.796875 2.109375 -3.753906 2.296875 -3.671875 C 2.492188 -3.597656 2.648438 -3.484375 2.765625 -3.328125 L 2.546875 -3.03125 L 2.484375 -3.03125 C 2.378906 -3.164062 2.253906 -3.265625 2.109375 -3.328125 C 1.960938 -3.390625 1.789062 -3.421875 1.59375 -3.421875 C 1.332031 -3.421875 1.132812 -3.367188 1 -3.265625 C 0.863281 -3.160156 0.796875 -3.019531 0.796875 -2.84375 C 0.796875 -2.675781 0.84375 -2.539062 0.9375 -2.4375 C 1.039062 -2.34375 1.207031 -2.269531 1.4375 -2.21875 L 1.890625 -2.109375 C 2.253906 -2.015625 2.515625 -1.878906 2.671875 -1.703125 C 2.835938 -1.535156 2.921875 -1.3125 2.921875 -1.03125 C 2.921875 -0.820312 2.875 -0.632812 2.78125 -0.46875 C 2.6875 -0.300781 2.539062 -0.171875 2.34375 -0.078125 C 2.15625 0.00390625 1.921875 0.046875 1.640625 0.046875 Z M 1.640625 0.046875 "/></g></g><g transform="translate(101.56256, 144.551169)"><g><path d="M 1.625 0.046875 C 1.375 0.046875 1.148438 -0.00390625 0.953125 -0.109375 C 0.753906 -0.222656 0.597656 -0.390625 0.484375 -0.609375 C 0.367188 -0.835938 0.3125 -1.101562 0.3125 -1.40625 C 0.3125 -1.71875 0.367188 -1.984375 0.484375 -2.203125 C 0.597656 -2.429688 0.753906 -2.597656 0.953125 -2.703125 C 1.148438 -2.816406 1.375 -2.875 1.625 -2.875 C 1.925781 -2.875 2.164062 -2.816406 2.34375 -2.703125 C 2.519531 -2.597656 2.644531 -2.453125 2.71875 -2.265625 L 2.4375 -2.0625 L 2.390625 -2.0625 C 2.304688 -2.21875 2.203125 -2.328125 2.078125 -2.390625 C 1.960938 -2.460938 1.8125 -2.5 1.625 -2.5 C 1.445312 -2.5 1.289062 -2.457031 1.15625 -2.375 C 1.03125 -2.300781 0.929688 -2.179688 0.859375 -2.015625 C 0.785156 -1.847656 0.75 -1.644531 0.75 -1.40625 C 0.75 -1.175781 0.785156 -0.976562 0.859375 -0.8125 C 0.929688 -0.644531 1.03125 -0.519531 1.15625 -0.4375 C 1.289062 -0.363281 1.445312 -0.328125 1.625 -0.328125 C 1.820312 -0.328125 1.984375 -0.367188 2.109375 -0.453125 C 2.234375 -0.546875 2.335938 -0.6875 2.421875 -0.875 L 2.46875 -0.875 L 2.75 -0.71875 C 2.664062 -0.476562 2.53125 -0.289062 2.34375 -0.15625 C 2.15625 -0.0195312 1.914062 0.046875 1.625 0.046875 Z M 1.625 0.046875 "/></g></g><g transform="translate(104.477233, 144.551169)"><g><path d="M 1.625 0.046875 C 1.351562 0.046875 1.117188 -0.00390625 0.921875 -0.109375 C 0.722656 -0.222656 0.570312 -0.390625 0.46875 -0.609375 C 0.363281 -0.828125 0.3125 -1.09375 0.3125 -1.40625 C 0.3125 -1.71875 0.363281 -1.984375 0.46875 -2.203125 C 0.570312 -2.429688 0.722656 -2.597656 0.921875 -2.703125 C 1.117188 -2.816406 1.351562 -2.875 1.625 -2.875 C 1.882812 -2.875 2.113281 -2.816406 2.3125 -2.703125 C 2.507812 -2.597656 2.660156 -2.429688 2.765625 -2.203125 C 2.878906 -1.984375 2.9375 -1.71875 2.9375 -1.40625 C 2.9375 -1.09375 2.878906 -0.828125 2.765625 -0.609375 C 2.660156 -0.390625 2.507812 -0.222656 2.3125 -0.109375 C 2.113281 -0.00390625 1.882812 0.046875 1.625 0.046875 Z M 1.625 -0.328125 C 1.90625 -0.328125 2.117188 -0.414062 2.265625 -0.59375 C 2.421875 -0.769531 2.5 -1.039062 2.5 -1.40625 C 2.5 -1.78125 2.421875 -2.054688 2.265625 -2.234375 C 2.117188 -2.410156 1.90625 -2.5 1.625 -2.5 C 1.34375 -2.5 1.125 -2.410156 0.96875 -2.234375 C 0.820312 -2.054688 0.75 -1.78125 0.75 -1.40625 C 0.75 -1.039062 0.820312 -0.769531 0.96875 -0.59375 C 1.125 -0.414062 1.34375 -0.328125 1.625 -0.328125 Z M 1.625 -0.328125 "/></g></g><g transform="translate(107.722594, 144.551169)"><g><path d="M 1.90625 -0.453125 L 2.046875 -0.15625 C 1.984375 -0.0820312 1.894531 -0.03125 1.78125 0 C 1.675781 0.03125 1.5625 0.046875 1.4375 0.046875 C 0.894531 0.046875 0.625 -0.222656 0.625 -0.765625 L 0.625 -2.484375 L 0.125 -2.484375 L 0.125 -2.828125 L 0.625 -2.828125 L 0.625 -3.421875 L 1.03125 -3.5 L 1.03125 -2.828125 L 1.953125 -2.828125 L 1.953125 -2.484375 L 1.03125 -2.484375 L 1.03125 -0.8125 C 1.03125 -0.488281 1.175781 -0.328125 1.46875 -0.328125 C 1.613281 -0.328125 1.742188 -0.367188 1.859375 -0.453125 Z M 1.90625 -0.453125 "/></g></g><g transform="translate(109.875914, 144.551169)"><g><path d="M 1.90625 -0.453125 L 2.046875 -0.15625 C 1.984375 -0.0820312 1.894531 -0.03125 1.78125 0 C 1.675781 0.03125 1.5625 0.046875 1.4375 0.046875 C 0.894531 0.046875 0.625 -0.222656 0.625 -0.765625 L 0.625 -2.484375 L 0.125 -2.484375 L 0.125 -2.828125 L 0.625 -2.828125 L 0.625 -3.421875 L 1.03125 -3.5 L 1.03125 -2.828125 L 1.953125 -2.828125 L 1.953125 -2.484375 L 1.03125 -2.484375 L 1.03125 -0.8125 C 1.03125 -0.488281 1.175781 -0.328125 1.46875 -0.328125 C 1.613281 -0.328125 1.742188 -0.367188 1.859375 -0.453125 Z M 1.90625 -0.453125 "/></g></g></g></svg>